<?xml version="1.0" encoding="utf-8"?>
<!-- Generator: Adobe Illustrator 16.0.0, SVG Export Plug-In . SVG Version: 6.00 Build 0)  -->
<!DOCTYPE svg PUBLIC "-//W3C//DTD SVG 1.1//EN" "http://www.w3.org/Graphics/SVG/1.1/DTD/svg11.dtd">
<svg version="1.1" id="Layer_1" xmlns="http://www.w3.org/2000/svg" xmlns:xlink="http://www.w3.org/1999/xlink" x="0px" y="0px"
	 width="191.292px" height="38.458px" viewBox="0 0 191.292 38.458" enable-background="new 0 0 191.292 38.458"
	 xml:space="preserve">
<g>
	<path fill="#4D4D4D" d="M78.532,14.09c0,0,0.488-0.188,1.353-0.188c0.941,0,1.354,0.188,1.354,0.188v13.797
		c0,2.594,1.354,3.91,4.097,3.91c1.992,0,4.061-1.242,5.226-3.422V14.09c0,0,0.451-0.188,1.354-0.188
		c0.939,0,1.354,0.188,1.354,0.188v19.398c0,0-0.414,0.188-1.354,0.188c-0.902,0-1.354-0.188-1.354-0.188V31.12
		c-1.467,1.844-3.646,2.934-6.24,2.934c-3.685,0-5.789-2.256-5.789-5.641V14.09z"/>
	<path fill="#4D4D4D" d="M102.515,33.489c0,0-0.451,0.188-1.354,0.188c-0.977,0-1.354-0.188-1.354-0.188V5.671
		c0,0,0.377-0.188,1.354-0.188c0.902,0,1.354,0.188,1.354,0.188V33.489z"/>
	<path fill="#4D4D4D" d="M112.591,26.834c0,3.609,1.014,4.963,3.984,4.963c0.939,0,1.842-0.189,1.842-0.189s0.227,0.451,0.227,1.129
		c0,0.639-0.15,1.016-0.15,1.016c-0.377,0.111-1.391,0.301-2.633,0.301c-4.436,0-5.977-2.52-5.977-7.105V16.045h-2.932
		c0,0-0.188-0.377-0.188-1.053c0-0.75,0.188-1.09,0.188-1.09h2.932v-3.571c0.715-0.489,1.729-0.677,2.707-0.602v4.172h5.375
		c0,0,0.188,0.377,0.188,1.053c0,0.678-0.188,1.09-0.188,1.09h-5.375V26.834z"/>
	<path fill="#4D4D4D" d="M125.562,9.618c0,0-0.525,0.188-1.541,0.188c-1.051,0-1.541-0.188-1.541-0.188V6.872
		c0,0,0.49-0.188,1.541-0.188c1.016,0,1.541,0.188,1.541,0.188V9.618z M125.375,33.489c0,0-0.451,0.188-1.354,0.188
		c-0.977,0-1.354-0.188-1.354-0.188V14.092c0,0,0.377-0.189,1.354-0.189c0.902,0,1.354,0.189,1.354,0.189V33.489z"/>
	<path fill="#4D4D4D" d="M141.023,6.234c6.393,0,10.338,4.173,10.338,13.909c0,9.736-3.908,13.91-10.338,13.91
		c-6.428,0-10.338-4.174-10.338-13.91C130.685,10.444,134.634,6.234,141.023,6.234 M141.023,8.564c-4.51,0-7.404,2.896-7.404,11.579
		c0,8.684,2.895,11.578,7.404,11.578c4.512,0,7.406-2.895,7.406-11.578C148.429,11.46,145.535,8.564,141.023,8.564"/>
	<path fill="#4D4D4D" d="M170.763,33.489c0,0-0.49,0.188-1.354,0.188c-0.939,0-1.355-0.188-1.355-0.188V19.692
		c0-2.594-1.352-3.908-4.059-3.908c-2.066,0-4.135,1.277-5.264,3.42v14.285c0,0-0.451,0.188-1.352,0.188
		c-0.941,0-1.354-0.188-1.354-0.188V14.092c0,0,0.412-0.189,1.354-0.189c0.9,0,1.352,0.189,1.352,0.189v2.367
		c1.467-1.842,3.609-2.932,6.24-2.932c3.686,0,5.791,2.256,5.791,5.639V33.489z"/>
	<path fill="#4D4D4D" d="M178.138,24.655c0.264,5.148,2.18,6.992,5.826,6.992c2.859,0,4.588-1.24,4.588-1.24
		c0.527,0.412,0.939,1.201,0.977,1.99c0,0-2.066,1.656-6.09,1.656c-5.412,0-8.119-3.572-8.119-10.377
		c0-7.104,3.27-10.15,8.082-10.15c4.547,0,7.066,2.707,7.066,7.255c0,2.332-0.412,3.873-0.412,3.873H178.138z M183.402,15.745
		c-3.008,0-5.037,1.992-5.264,6.879h9.549c0.039-0.264,0.113-0.977,0.113-2.143C187.8,17.924,186.634,15.745,183.402,15.745"/>
	<path fill="#4D4D4D" d="M61.643,20.256c-0.751,1.354-1.164,2.33-1.278,2.781h-0.149c-0.255-0.801-0.97-2.342-1.867-4.076
		c-0.029-0.057-0.058-0.113-0.088-0.17l-2.468-4.512L51.86,7.094c-0.092-0.168-0.248-0.289-0.434-0.329
		c-0.311-0.066-0.833-0.154-1.399-0.154c-0.479,0-0.872,0.046-1.159,0.098c-0.313,0.056-0.531,0.332-0.531,0.649V33.45
		c0,0,0.45,0.227,1.277,0.227c0.864,0,1.278-0.227,1.278-0.227V17.325c0-3.309-0.074-6.241-0.301-7.331h0.112
		c0.264,0.977,1.392,3.383,2.595,5.6c0.826,1.545,1.66,3.07,2.494,4.596c0.854,1.563,1.705,3.127,2.556,4.689
		c0.321,0.588,0.646,1.176,0.965,1.766c0,0,0.338,0.152,0.864,0.152c0.564,0,0.939-0.152,0.939-0.152l4.248-7.516
		c0.193-0.342,0.052-0.773-0.307-0.934l-1.801-0.801C63.135,17.616,61.791,19.989,61.643,20.256"/>
	<path fill="#B4D678" d="M70.815,6.61c-0.751,0-1.391,0.112-1.804,0.225c-1.376,2.518-3.168,5.833-4.23,7.81
		c-0.154,0.289-0.03,0.646,0.269,0.779l1.935,0.859l0.411-0.766c1.203-2.292,2.256-4.547,2.556-5.524h0.113
		c-0.15,1.315-0.188,4.286-0.188,7.516v2.396v5.496v8.049c0,0,0.489,0.225,1.391,0.225c0.903,0,1.392-0.225,1.392-0.225v-12.98
		V14.84V6.835C72.658,6.835,71.943,6.61,70.815,6.61"/>
	<path fill="#4D4D4D" d="M17.135,5.146c0.733,0.378,1.543,0.796,2.421,1.249c0.259,0.133,0.518,0.268,0.778,0.401
		c0.184,0.078,0.336,0.07,0.528-0.026c0.029-0.015,3.321-1.888,3.465-1.979c0.001-0.001,0.25-0.11-0.114-0.298
		c-0.367-0.189-0.651-0.337-1.02-0.525c-0.421-0.217-0.841-0.434-1.262-0.651c-0.036-0.016-0.148-0.063-0.354-0.028
		c-0.042,0.008-2.792,0.752-4.086,1.265C17.073,4.719,16.908,4.974,17.135,5.146"/>
	<path fill="#B4D678" d="M10.288,9.749c0.982,0.507,2.14,1.104,3.447,1.778c0.192,0.077,0.381,0.054,0.562-0.066l4.417-3.284
		c0.224-0.193,0.47-0.434-0.024-0.689c-0.036-0.018-0.072-0.037-0.107-0.056c-1.143-0.589-2.173-1.12-3.074-1.585
		c-0.05-0.019-0.148-0.101-0.313-0.017C15.124,5.867,9.364,8.983,10.288,9.749"/>
	<path fill="#B4D678" d="M5.152,16.209c0.787,0.406,1.755,0.904,2.879,1.486c0.255,0.096,0.255,0.096,1.24-1.223
		c0.569-0.758,0.569-0.758,2.519-2.869c0.182-0.197,0.539-0.626,0.028-0.874c-1.197-0.617-2.245-1.158-3.125-1.612
		c-0.183-0.094-0.448,0.265-0.507,0.325c-0.732,0.762-2.155,2.461-2.811,3.62C5.048,15.643,4.867,16.061,5.152,16.209"/>
	<path fill="#8BA27E" d="M6.098,24.049c0.022-0.396,0.058-0.693,0.116-1.027c0.166-0.938,0.247-1.158,0.775-2.596
		c0.029-0.08,0.229-0.508-0.164-0.754c-0.944-0.566-1.75-1.051-2.397-1.439c-0.151-0.092-0.169,0.088-0.22,0.248
		c-0.254,0.811-0.55,3.25-0.504,3.914c0.02,0.281,0.012,0.477,0.184,0.578c0.513,0.309,1.163,0.701,1.935,1.164
		C6.016,24.252,6.089,24.182,6.098,24.049"/>
	<path fill="#4D4D4D" d="M6.626,29.518c-0.057-0.492-0.152-0.66-0.24-1.426c-0.061-0.521-0.1-1.051-0.196-1.563
		c-0.043-0.227-0.154-0.305-0.191-0.33c-0.644-0.332-1.187-0.611-1.612-0.832c-0.008-0.002-0.019-0.006-0.026-0.006
		c-0.348,0.027,0.808,3.588,1.104,3.742c0.289,0.148,0.653,0.336,1.081,0.555C6.572,29.668,6.646,29.692,6.626,29.518"/>
	<path fill="#B4D678" d="M26.011,5.653c-0.107,0.054-2.92,1.953-2.94,1.971c-0.004,0.004-0.544,0.304,0.08,0.626
		c1.129,0.583,2.257,1.165,3.347,1.728c0.294,0.121,0.335,0.067,1.039-0.829c1.001-1.274,1.243-2.075,1.243-2.08
		c0.001-0.002,0.066-0.205-0.14-0.311c-0.308-0.16-1.395-0.723-2.004-1.062C26.281,5.498,26.07,5.624,26.011,5.653"/>
	<path fill="#8BA27E" d="M20.967,15.217c0.168,0.07,0.375,0.109,0.638-0.121c0.03-0.027,3.186-3.124,3.577-3.593
		c0.003-0.004,0.398-0.434-0.175-0.762c-1.194-0.617-2.372-1.225-3.593-1.854c-0.199-0.103-0.411-0.079-0.729,0.129
		c-0.67,0.438-3.478,2.463-4.162,3.024c-0.302,0.247-0.344,0.655,0.072,0.922C18.041,13.708,19.514,14.469,20.967,15.217"/>
	<path fill="#B4D678" d="M12.305,16.002c-0.615,0.633-1.175,1.324-1.689,2.049c-0.258,0.363-0.499,0.691-0.288,0.807
		c1.146,0.641,3.002,1.631,4.396,2.35c0.117,0.059,0.413,0.207,0.543,0.166c0.096-0.029,0.259-0.17,0.328-0.246
		c1.198-1.307,2.309-2.553,3.507-3.857c0.105-0.117,0.217-0.248,0.219-0.402c0.003-0.211-0.197-0.342-0.375-0.434
		c-1.362-0.709-2.713-1.441-4.089-2.125C14.536,14.149,14.098,14.155,12.305,16.002"/>
	<path fill="#B4D678" d="M7.911,23.456c-0.345,1.104-0.386,1.439-0.014,1.689c0.54,0.277,1.121,0.576,1.738,0.896
		c0.462,0.238,0.93,0.48,1.399,0.721c0.306,0.123,0.491-0.127,0.604-0.334c0.14-0.258,0.394-0.826,1.73-2.859
		c0.048-0.072,0.415-0.439-0.171-0.74c-0.729-0.377-3.252-1.678-3.755-1.938c-0.147-0.076-0.348-0.059-0.537,0.234
		C8.633,21.547,7.918,23.43,7.911,23.456"/>
	<path fill="#B4D678" d="M8.436,30.643c0.286,0.148,0.591,0.305,0.912,0.471c0.314,0.162,0.633,0.326,0.952,0.49
		c0.083,0.043,0.222,0.08,0.25-0.061c0.013-0.068,0.013-0.072,0.019-0.227c0.002-0.063,0.016-0.396,0.075-0.811
		c0.085-0.588,0.221-1.063,0.261-1.195c0.02-0.066,0.056-0.152,0.061-0.223c0.011-0.17-0.069-0.313-0.238-0.42
		c-0.409-0.209-0.818-0.416-1.218-0.627c-0.565-0.301-1.53-0.801-1.736-0.896c-0.153-0.07-0.186,0.244-0.117,0.773
		c0.063,0.5,0.243,1.467,0.458,2.111C8.217,30.338,8.307,30.563,8.436,30.643"/>
	<path fill="#8BA27E" d="M32.116,7.022c0.073,0.037,0.045,0,0.028-0.043"/>
	<path fill="#B4D678" d="M31.63,8.292c-0.42-0.216-0.84-0.434-1.259-0.649c-0.026-0.011-0.058-0.023-0.09-0.016
		c-0.07,0.017-0.088,0.094-0.104,0.161c-0.026,0.114-0.107,0.393-0.243,0.715c-0.324,0.769-0.921,1.525-1.28,2.115
		c-0.126,0.207-0.113,0.362,0.308,0.611c1.062,0.547,2.066,1.065,2.972,1.533c0.117,0.053,0.36,0.164,0.615-1.541
		c0.194-1.302-0.047-2.234-0.05-2.243c0-0.002-0.024-0.25-0.223-0.353C32.061,8.515,31.845,8.403,31.63,8.292"/>
	<path fill="#B4D678" d="M31.258,13.969c-1.097-0.566-1.956-1.008-3.217-1.66c-0.475-0.246-0.812-0.063-1.02,0.118
		c-1.071,0.939-3.353,3.379-3.353,3.379c-0.246,0.24-0.467,0.537,0.229,0.896c1.556,0.801,3.061,1.576,4.46,2.299
		c0.353,0.145,0.422,0.053,0.96-0.656c1.463-1.932,2.197-3.402,2.235-3.555C31.554,14.786,31.807,14.252,31.258,13.969"/>
	<path fill="#B4D678" d="M23.453,25.157c0.42-0.375,3.231-3.338,3.56-3.713c0.314-0.357,0.427-0.672-0.17-0.98
		c-1.528-0.787-3.16-1.631-4.836-2.494c-0.127-0.066-0.461-0.133-0.862,0.18c-0.41,0.32-3.607,3.559-3.645,3.592
		c-0.379,0.326-0.468,0.602,0.216,0.955c1.713,0.883,3.4,1.754,4.999,2.578C22.907,25.374,23.165,25.413,23.453,25.157"/>
	<path fill="#4D4D4D" d="M18.007,30.03l2.741-2.645c0.061-0.064,0.4-0.441-0.149-0.727c-1.464-0.756-3.003-1.549-4.56-2.352
		c-0.104-0.045-0.21-0.092-0.37-0.074c-0.554,0.064-2.216,2.783-2.231,2.811c-0.266,0.467-0.398,0.701,0.07,0.994
		c1.327,0.686,2.646,1.367,3.908,2.018C17.78,30.206,17.89,30.125,18.007,30.03"/>
	<path fill="#8BA27E" d="M12.176,32.54c0.676,0.35,1.345,0.693,1.983,1.023c0.151,0.078,0.264,0.074,0.357,0.002
		c0.266-0.209,1.679-1.783,1.69-1.799c0.001-0.002,0.185-0.203-0.136-0.367c-0.992-0.512-2.03-1.047-3.074-1.586
		c-0.081-0.043-0.137-0.057-0.221-0.053c-0.151,0.01-0.298,0.025-0.602,1.41C11.911,32.375,12.021,32.459,12.176,32.54"/>
	<path fill="#B4D678" d="M30.785,20.252c0.941,0.486,1.883,0.971,2.825,1.457c0.045,0.021,0.092,0.045,0.144,0.041
		c0.076-0.008,0.144-0.074,0.198-0.141c0.188-0.225,0.319-0.494,0.437-0.766c0.234-0.541,0.417-1.102,0.6-1.662
		c0.256-0.787,0.515-1.582,0.638-2.391c0.025-0.168,0.043-0.348-0.023-0.488s-0.204-0.215-0.334-0.281
		c-0.647-0.334-1.232-0.623-1.876-0.963c-0.192-0.102-0.479,0.055-0.564,0.225c-0.049,0.1-0.288,0.654-0.429,0.949
		c-0.374,0.785-1.72,2.963-1.904,3.305C30.323,19.856,30.577,20.145,30.785,20.252"/>
	<path fill="#4D4D4D" d="M25.329,25.915c-0.003,0.004-0.404,0.465,0.151,0.752c1.38,0.711,2.652,1.367,3.762,1.941
		c0.156,0.08,0.453-0.045,0.739-0.348c1.029-1.092,2.946-3.66,2.967-3.693c0.123-0.205,0.513-0.615-0.048-0.902
		c-1.003-0.518-3.104-1.674-3.481-1.826c-0.266-0.107-0.548,0.158-0.616,0.234c-0.565,0.633-1.051,1.227-1.62,1.854
		C26.574,24.598,25.882,25.194,25.329,25.915"/>
	<path fill="#8BA27E" d="M27.32,30.086c-1.17-0.604-2.352-1.213-3.786-1.953c-0.255-0.131-0.59-0.078-0.851,0.127
		c-0.149,0.117-2.889,2.424-2.919,2.445c-0.14,0.105-0.286,0.334,0.104,0.535c1.246,0.643,2.409,1.244,3.44,1.775
		c0.22,0.113,0.44,0.037,0.876-0.209c1.154-0.65,3.093-2.066,3.116-2.084C27.343,30.686,27.782,30.348,27.32,30.086"/>
	<path fill="#B4D678" d="M21.597,34.231c-0.951-0.49-2.022-1.043-3.168-1.635c-0.092-0.037-0.186-0.078-0.344-0.068
		c-0.14,0.008-0.298,0.018-2.279,1.75c-0.018,0.014-0.146,0.082,0.062,0.188c0.734,0.379,1.418,0.732,2.021,1.043
		c0.171,0.088,0.309,0.107,0.488,0.066C18.522,35.543,22.373,34.631,21.597,34.231"/>
	<path fill="#4D4D4D" d="M35.008,10.241c0.717,1.661,0.884,4.472,0.587,4.402c-0.459-0.238-1.053-0.545-1.747-0.902
		c-0.274-0.143-0.306-0.327-0.265-0.523c0.08-0.371,0.055-0.247,0.116-0.497c0.109-0.449,0.283-1.357,0.209-2.379
		c-0.021-0.301-0.061-0.569-0.114-0.884c-0.003-0.022-0.032-0.1,0.015-0.075c0.092,0.047,0.795,0.41,1.012,0.521
		C34.918,9.954,35.006,10.238,35.008,10.241"/>
	<path fill="#B4D678" d="M36.719,25.575c-0.175-0.09-0.408-0.209-0.7-0.359c-0.132-0.07-0.274-0.143-0.427-0.221
		c-0.283-0.146-0.6-0.311-0.948-0.49c-0.03-0.01-0.075-0.023-0.106-0.023c-0.09,0.004-0.194,0.07-0.274,0.174
		c-0.335,0.432-0.589,0.916-0.91,1.355c-0.844,1.156-1.665,2.033-2.083,2.449c-0.4,0.4-0.81,0.762-0.306,1.021
		c0.488,0.252,0.932,0.48,1.327,0.686c0.35,0.18,0.661,0.342,0.93,0.479c0.062,0.033,0.285,0.146,0.479,0.246
		c0.173,0.088,0.386,0.045,0.507-0.107c1.114-1.41,2.013-2.99,2.709-4.68C37,25.903,36.883,25.659,36.719,25.575"/>
	<path fill="#B4D678" d="M31.797,32.407c-0.738-0.391-1.48-0.777-2.241-1.119c-0.292-0.133-0.481-0.037-0.564,0.031
		c-0.105,0.088-0.749,0.617-0.975,0.785c-0.094,0.07-0.188,0.141-0.283,0.211c-0.44,0.322-0.895,0.631-1.363,0.922
		c-0.089,0.055-0.179,0.109-0.268,0.164c-0.247,0.148-0.33,0.178-0.642,0.393c-0.112,0.078-0.102,0.148-0.104,0.182
		c-0.005,0.066,0.074,0.117,0.142,0.152c0.887,0.459,1.779,0.906,2.659,1.379c0.18,0.096,0.317,0.123,0.794-0.199
		c1.483-0.896,2.265-1.439,3.428-2.537C32.339,32.715,31.944,32.485,31.797,32.407"/>
	<path fill="#B4D678" d="M4.028,28.26c-0.722-1.58-0.739-1.572-0.927-2.201c-0.13-0.438-0.201-0.785-0.243-0.992
		c-0.029-0.139-0.04-0.395-0.191-0.467c-0.164-0.086-0.717-0.404-1.031-0.582c-0.1-0.057-0.186-0.033-0.174,0.008
		c0.356,1.33,0.804,2.494,1.428,3.689C3.076,28.034,4.169,28.571,4.028,28.26"/>
	<path fill="#B4D678" d="M2.296,22.231c0.185,0.094,0.12,0.023,0.108-0.195c-0.023-0.463-0.042-0.785-0.027-1.154
		c0.063-1.596,0.164-1.867,0.374-2.795c0.027-0.121,0.175-0.561-0.088-0.695c-0.541-0.279-1.192-0.646-1.431-0.748
		c-0.112-0.047-0.24,0.031-0.256,0.152c-0.099,0.777-0.154,1.568-0.154,2.373c0,0.742,0.049,1.473,0.133,2.189
		c0.001,0.012,0.004,0.021,0.009,0.031C1.125,21.696,1.901,22.026,2.296,22.231"/>
	<path fill="#4D4D4D" d="M3.072,15.208c0.134,0.043,0.134,0.043,0.989-1.346c0.801-1.304,1.434-1.95,2.391-2.924
		c0.189-0.194,0.558-0.6,0.166-0.802C6.05,9.843,5.569,9.595,5.172,9.392L4.295,8.938c0,0-0.283-0.167-0.438,0.022
		c-1.036,1.587-1.839,3.34-2.356,5.21c-0.032,0.115,0.021,0.238,0.126,0.291C1.792,14.547,2,14.655,2.252,14.784
		C2.49,14.907,2.763,15.047,3.072,15.208"/>
	<path fill="#B4D678" d="M7.964,8.515c0.175,0.063,0.175,0.063,1.694-0.974c1.423-0.969,3.607-2.018,3.733-2.099
		c0.006-0.002,0.645-0.339,0.209-0.559c-0.6-0.303-2.432-1.247-3.223-1.644c-0.225-0.113-0.493-0.104-0.706,0.028
		c-1.574,0.979-2.99,2.184-4.207,3.569c-0.116,0.135-0.078,0.343,0.08,0.425C6.142,7.576,7.446,8.252,7.964,8.515"/>
	<path fill="#8BA27E" d="M14.585,3.863c0.203,0.114,0.548,0.094,0.681,0.057C15.848,3.764,16.419,3.57,17,3.413
		c1.048-0.285,1.865-0.586,2.911-0.872C20,2.519,20.219,2.446,20.111,2.385c-0.116-0.06-1.885-0.918-2.94-1.413
		c-0.392-0.183-0.833-0.246-1.257-0.163c-1.403,0.274-2.749,0.707-4.02,1.277c-0.156,0.069-0.162,0.292-0.011,0.369
		C12.686,2.872,14.514,3.824,14.585,3.863"/>
	<path fill="#B4D678" d="M35.658,10.249c-0.016-0.006-0.053-0.018-0.054,0.029c0.001,0.03,0.021,0.06,0.031,0.085
		c0.063,0.157,0.114,0.252,0.161,0.366c0.16,0.384,0.327,0.729,0.457,1.128c0.395,1.214,0.408,2.19,0.441,2.608
		c0.014,0.168,0.02,0.719,0.223,0.824c0.176,0.09,0.235,0.154,0.313,0.195c0.044,0.021,0.363,0.188,0.572,0.279
		c0.059,0.025,0.123-0.043,0.113-0.092c-0.345-1.824-0.952-3.553-1.785-5.149c-0.012-0.021-0.023-0.049-0.04-0.065
		C36.032,10.402,35.908,10.332,35.658,10.249"/>
	<path fill="#8BA27E" d="M38.033,17.438c-0.156-0.076-0.345-0.18-0.374-0.195c-0.063-0.033-0.597-0.309-0.831-0.43
		c-0.011-0.006-0.034-0.016-0.061-0.025c-0.171-0.084-0.162,1.541-0.415,2.646c-0.238,1.041-0.582,1.898-0.648,2.059
		c-0.158,0.385-0.168,0.408-0.2,0.592c-0.015,0.08-0.13,0.545,0.185,0.707c0.354,0.182,0.67,0.346,0.942,0.486
		c0.321,0.166,0.256,0.129,0.438,0.223c0.049,0.025,0.217,0.115,0.336,0.191c0.11,0.07,0.288,0.021,0.307-0.074
		c0.373-1.475,0.537-2.859,0.537-4.447c0-0.512-0.024-1.016-0.064-1.516C38.179,17.61,38.185,17.512,38.033,17.438"/>
	<path fill="#B4D678" d="M23.873,35.401c-0.177-0.09-0.378-0.17-0.572-0.127c-0.109,0.023-0.215,0.09-0.314,0.135
		c-0.114,0.049-0.229,0.1-0.344,0.148c-0.46,0.195-0.924,0.383-1.394,0.561c-0.335,0.127-0.621,0.225-0.962,0.34
		c-0.096,0.031-0.283,0.096-0.211,0.129c0.278,0.143,0.548,0.281,0.819,0.422c0.001,0.002-0.001,0.004,0.001,0.004
		c0.438,0.229,0.854,0.441,1.293,0.67c0.009,0.002,0.021,0.004,0.029,0.004c1.365-0.195,2.681-0.539,3.934-1.014
		c0.039-0.014,0.045-0.064,0.009-0.084C25.745,36.372,24.182,35.561,23.873,35.401"/>
</g>
</svg>
