<?xml version="1.0" encoding="UTF-8"?>
<svg id="Capa_1" data-name="Capa 1" xmlns="http://www.w3.org/2000/svg" viewBox="0 0 3182.41 1125.53">
  <defs>
    <style>
      .cls-1 {
        fill: #103655;
      }

      .cls-2 {
        fill: #6dae86;
      }
    </style>
  </defs>
  <g>
    <path class="cls-1" d="M1403.22,306.21c0-55.75,34.5-91.75,88.25-91.75s88.5,35.25,88.5,91.75c0,53.5-35,90.75-88.5,90.75s-88.25-37.25-88.25-90.75ZM1540.73,306.21c0-38.25-17.25-62.5-49.25-62.5s-49,23.5-49,62.5,17.75,61.5,49.25,61.5,49-23.25,49-61.5Z"/>
    <path class="cls-1" d="M1588.97,433.33l.75-92.38-.75-74.25c0-1.5.88-2.25,2.38-2.25h33.12c1.5,0,2.38.88,2.25,2.38l-.62,12.62c9-11,21.75-17.5,38-17.5,36.5,0,55.75,29,55.75,66.5s-21.5,67.25-56.5,67.25c-15.5,0-27.88-5.5-36.62-15.75l.5,53.38c0,1.62-.88,2.38-2.25,2.38h-33.62c-1.5,0-2.38-.75-2.38-2.38ZM1681.6,330.46c0-28.5-9.75-43-28-43s-28,13.75-28.25,40.5c-.25,27.25,9.5,42.5,27.5,42.5,19,0,28.75-13.75,28.75-40Z"/>
    <path class="cls-1" d="M1727.97,329.21c0-41,24.5-68,65.5-68s65.62,28,66.5,72.88c0,1.5-.88,2.38-2.38,2.38h-91.88c1.5,24.38,11,35,29,35,12.62,0,21.5-5.38,25-18.5.38-1.38,1.12-2,2.5-2h31.5c1.5,0,2.5.5,2.25,1.5-2.88,23.38-25.38,44-61.75,44-43,0-66.25-28.25-66.25-67.25ZM1819.47,312.71c-1.5-13.75-9.25-26.75-25.75-26.75-15.12,0-23.88,9-27.12,26.75h52.88Z"/>
    <path class="cls-1" d="M1868.59,390.83l.75-59.38-.25-64.75c0-1.38.88-2.25,2.38-2.25h31.5c1.5,0,2.25.75,2.25,2.38l-.62,13.88c8.75-11.25,23.5-19.25,41.5-19.25,27.25,0,44.88,18.5,44.88,50v27l.62,52.38c0,1.62-.88,2.38-2.25,2.38h-33.38c-1.5,0-2.38-.75-2.38-2.38l.62-52.38v-26.5c0-14-8.38-23-19.62-23-13.5,0-28,12.5-28,40v9.5l.5,52.38c0,1.62-.88,2.38-2.25,2.38h-33.88c-1.5,0-2.38-.75-2.38-2.38Z"/>
    <path class="cls-1" d="M1403.22,505.71c0-55.25,35-91.25,85.75-91.25,43.25,0,71,21.25,80.38,57.88.5,1.62-.38,2.62-2,2.62h-34.62c-1.25,0-2.12-.62-2.5-2-5.62-19.5-19.5-29.62-41-29.62-30.5,0-46.75,24.12-46.75,62.88s17,61.75,48,61.75c25,0,41-14.62,42-41.62h-43.38c-1.5,0-2.38-.88-2.38-2.38v-23.38c0-1.5.88-2.38,2.38-2.38h81.88c1.38,0,2.25,1,2.25,2.88.38,64.25-29.38,95.88-83,95.88s-87-37-87-91.25Z"/>
    <path class="cls-1" d="M1579.72,529.21c0-41,24.5-68,65.5-68s65.62,28,66.5,72.88c0,1.5-.88,2.38-2.38,2.38h-91.88c1.5,24.38,11,35,29,35,12.62,0,21.5-5.38,25-18.5.38-1.38,1.12-2,2.5-2h31.5c1.5,0,2.5.5,2.25,1.5-2.88,23.38-25.38,44-61.75,44-43,0-66.25-28.25-66.25-67.25ZM1671.22,512.71c-1.5-13.75-9.25-26.75-25.75-26.75-15.12,0-23.88,9-27.12,26.75h52.88Z"/>
    <path class="cls-1" d="M1719.47,529.21c0-41,24.25-68,66.25-68s65.75,26.25,65.75,67.25-23.75,68-65.75,68-66.25-26.25-66.25-67.25ZM1812.97,529.21c0-29-9-43-27.5-43-19,.25-27.75,14.25-27.75,43.25s9.25,42,28,42,27.25-12.75,27.25-42.25Z"/>
    <path class="cls-1" d="M1854.85,552.83c0-1.38.75-2.25,2.25-2.25h31.88c1.5,0,2.38.88,2.38,2.25.88,14,10.38,20.12,28,20.12,14.75,0,22.75-5.75,22.75-15.75,0-24.5-84.25-.75-84.25-54.75,0-26.75,21.5-41,56.25-41s56.38,13.12,58.75,39.62c.25,1.62-.75,2.5-2.25,2.5h-30.38c-1.5,0-2.25-.75-2.5-2.12-2-10.62-8.88-17.25-24.12-17.25-12.25,0-20,4.5-20,15.5,0,24.5,84.25-.5,84.25,54.25,0,27-25.5,42.25-60.38,42.25-37.38,0-61.38-15-62.62-43.38Z"/>
    <path class="cls-1" d="M1986.47,633.33l.75-92.38-.75-74.25c0-1.5.88-2.25,2.38-2.25h33.12c1.5,0,2.38.88,2.25,2.38l-.62,12.62c9-11,21.75-17.5,38-17.5,36.5,0,55.75,29,55.75,66.5s-21.5,67.25-56.5,67.25c-15.5,0-27.88-5.5-36.62-15.75l.5,53.38c0,1.62-.88,2.38-2.25,2.38h-33.62c-1.5,0-2.38-.75-2.38-2.38ZM2079.1,530.46c0-28.5-9.75-43-28-43s-28,13.75-28.25,40.5c-.25,27.25,9.5,42.5,27.5,42.5,19,0,28.75-13.75,28.75-40Z"/>
    <path class="cls-1" d="M2125.47,529.21c0-37.25,21.5-67.25,56.5-67.25,16,0,28.5,5.75,37.25,16.25l-.62-11.38c-.12-1.5.75-2.38,2.12-2.38h33.25c1.5,0,2.25.75,2.25,2.25l-.62,62.25.62,61.88c0,1.62-.75,2.38-2.25,2.38h-33c-1.5,0-2.25-.88-2.12-2.38l.38-12.62c-9,11-21.75,17.5-38,17.5-36.5,0-55.75-29-55.75-66.5ZM2219.97,529.71c.25-27.5-9.5-42.5-27.5-42.75-19-.5-28.75,13.75-28.75,40.25,0,29,10,43.75,28,43.5,18.25,0,28-13.75,28.25-41Z"/>
    <path class="cls-1" d="M2280.34,555.46l.25-64.5h-14.38c-1.5,0-2.38-.88-2.38-2.38v-21.88c0-1.38.88-2.25,2.38-2.25h14.25l-.25-30c0-1.5.88-2.25,2.38-2.25h33.12c1.38,0,2.25.75,2.25,2.25l-.25,30h28.62c1.38,0,2.25.88,2.25,2.25v21.88c0,1.5-.88,2.38-2.25,2.38h-28.75l.25,63.5c0,11,5.5,14.5,13.75,14.5,5.88,0,10.38-1,14.12-2,1.62-.5,2.62.38,2.62,2v19.75c0,1.25-.5,2.12-1.75,2.62-7.25,2.38-15.62,4.38-23.75,4.38-21.75,0-42.5-11-42.5-40.25Z"/>
    <path class="cls-1" d="M2357.34,590.83l.75-61.88-.75-62.25c0-1.5.88-2.25,2.38-2.25h33.62c1.38,0,2.25.75,2.25,2.25l-.75,62.25.75,61.88c0,1.62-.88,2.38-2.25,2.38h-33.62c-1.5,0-2.38-.75-2.38-2.38ZM2357.46,449.58v-29.12c0-1.38.88-2.25,2.38-2.25h33.38c1.38,0,2.25.88,2.25,2.25v29.12c0,1.5-.88,2.38-2.25,2.38h-33.38c-1.5,0-2.38-.88-2.38-2.38Z"/>
    <path class="cls-1" d="M2405.34,529.21c0-37.25,21.5-67.25,56.5-67.25,16,0,28.5,5.75,37.25,16.25l-.62-11.38c-.12-1.5.75-2.38,2.12-2.38h33.25c1.5,0,2.25.75,2.25,2.25l-.62,62.25.62,61.88c0,1.62-.75,2.38-2.25,2.38h-33c-1.5,0-2.25-.88-2.12-2.38l.38-12.62c-9,11-21.75,17.5-38,17.5-36.5,0-55.75-29-55.75-66.5ZM2499.84,529.71c.25-27.5-9.5-42.5-27.5-42.75-19-.5-28.75,13.75-28.75,40.25,0,29,10,43.75,28,43.5,18.25,0,28-13.75,28.25-41Z"/>
    <path class="cls-1" d="M2548.96,590.83l1-85.12-1-85.25c0-1.5.88-2.25,2.38-2.25h32.62c1.38,0,2.25.75,2.25,2.25l-1,85.25,1,85.12c0,1.62-.88,2.38-2.25,2.38h-32.62c-1.5,0-2.38-.75-2.38-2.38Z"/>
    <path class="cls-2" d="M1403.22,706.46c0-55.75,34-92,86.75-92,37.5,0,68.12,15.38,78.25,61.88.38,1.62-.5,2.62-2.12,2.62h-32.62c-1.25,0-2.12-.75-2.38-2-5-21.25-18.88-33.25-41.62-33.25-30.5,0-47,23.5-47,62.5s17,61.5,46.75,61.5c24.5,0,37.75-13.25,42.38-37.12.25-1.38,1.25-2.12,2.5-2.12h33.25c1.62,0,2.5,1.12,2,3-9.75,47.25-38.25,65.5-79.12,65.5-53.75,0-87-37.25-87-90.5Z"/>
    <path class="cls-2" d="M1575.22,729.21c0-37.25,21.5-67.25,56.5-67.25,16,0,28.5,5.75,37.25,16.25l-.62-11.38c-.12-1.5.75-2.38,2.12-2.38h33.25c1.5,0,2.25.75,2.25,2.25l-.62,62.25.62,61.88c0,1.62-.75,2.38-2.25,2.38h-33c-1.5,0-2.25-.88-2.12-2.38l.38-12.62c-9,11-21.75,17.5-38,17.5-36.5,0-55.75-29-55.75-66.5ZM1669.72,729.71c.25-27.5-9.5-42.5-27.5-42.75-19-.5-28.75,13.75-28.75,40.25,0,29,10,43.75,28,43.5,18.25,0,28-13.75,28.25-41Z"/>
    <path class="cls-2" d="M1717.6,790.83l.88-62.12-.88-62c0-1.5.88-2.25,2.38-2.25h32.62c1.5,0,2.25.75,2.25,2.38l-.88,19.38c10-15.25,27.25-22.75,46-22.75,2,0,4.12.25,6,.62,1.25.25,2,1.25,2,2.5v23.12c0,1.5-.88,2.38-2.38,2.25s-3.25-.25-4.62-.25c-26.5,0-46,14.75-46,44.25l.12,54.88c0,1.5-.88,2.38-2.25,2.38h-32.88c-1.5,0-2.38-.75-2.38-2.38Z"/>
    <path class="cls-2" d="M1851.59,779.46l.62,11.38c.12,1.5-.75,2.38-2.25,2.38h-33.12c-1.5,0-2.38-.75-2.38-2.38l.75-85.12-.75-85.25c0-1.5.88-2.25,2.38-2.25h33.12c1.38,0,2.25.88,2.25,2.25l-.12,58.5c8.88-10.75,21.5-17,37.5-17,36.5,0,55.75,29,55.75,66.5s-21.5,67.25-56.5,67.25c-16,0-28.5-5.75-37.25-16.25ZM1907.09,729.96c0-28.25-10-42.75-28-42.5-18.25,0-28,13.5-28.25,40-.25,27.5,9.5,42.5,27.5,42.75,19,.5,28.75-14.25,28.75-40.25Z"/>
    <path class="cls-2" d="M1953.47,729.21c0-41,24.25-68,66.25-68s65.75,26.25,65.75,67.25-23.75,68-65.75,68-66.25-26.25-66.25-67.25ZM2046.97,729.21c0-29-9-43-27.5-43-19,.25-27.75,14.25-27.75,43.25s9.25,42,28,42,27.25-12.75,27.25-42.25Z"/>
    <path class="cls-2" d="M2094.34,790.83l.75-59.38-.25-64.75c0-1.38.88-2.25,2.38-2.25h31.5c1.5,0,2.25.75,2.25,2.38l-.62,13.88c8.75-11.25,23.5-19.25,41.5-19.25,27.25,0,44.88,18.5,44.88,50v27l.62,52.38c0,1.62-.88,2.38-2.25,2.38h-33.38c-1.5,0-2.38-.75-2.38-2.38l.62-52.38v-26.5c0-14-8.38-23-19.62-23-13.5,0-28,12.5-28,40v9.5l.5,52.38c0,1.62-.88,2.38-2.25,2.38h-33.88c-1.5,0-2.38-.75-2.38-2.38Z"/>
    <path class="cls-2" d="M2270.08,790.83l.88-85.12-.88-85.25c0-1.5.75-2.25,2.25-2.25h70.88c43.75,0,69,18.5,69,55,0,25.88-14.12,43.5-39,51l42.88,66.25c1,1.5.5,2.75-1.38,2.75h-39.12c-1.12,0-2.25-.62-2.88-1.62l-22.5-37.38-17.25-26h-25l.62,62.62c0,1.62-.75,2.38-2.25,2.38h-34c-1.5,0-2.25-.75-2.25-2.38ZM2345.71,700.46c16,0,29.75-7.5,29.75-26.5s-11.25-28-30.75-28h-36.25l-.62,54.5h37.88Z"/>
    <path class="cls-2" d="M2412.21,729.21c0-41,24.5-68,65.5-68s65.62,28,66.5,72.88c0,1.5-.88,2.38-2.38,2.38h-91.88c1.5,24.38,11,35,29,35,12.62,0,21.5-5.38,25-18.5.38-1.38,1.12-2,2.5-2h31.5c1.5,0,2.5.5,2.25,1.5-2.88,23.38-25.38,44-61.75,44-43,0-66.25-28.25-66.25-67.25ZM2503.71,712.71c-1.5-13.75-9.25-26.75-25.75-26.75-15.12,0-23.88,9-27.12,26.75h52.88Z"/>
    <path class="cls-2" d="M2557.08,802.46c-.12-1.5.75-2.38,2.25-2.38h32.5c1.38,0,2.12.62,2.5,2,2,10.38,10.12,16.38,25.38,16.38,16.25,0,27.5-9,27.5-29.25v-14.75c-8.5,11.25-21,18-37,18-38.25,0-58.25-28.25-58.25-64.5s21.5-65.25,56.5-65.25c16,0,28.5,5.5,37.25,15.75l-.62-11.62c-.12-1.5.75-2.38,2.12-2.38h32.88c1.5,0,2.38.75,2.38,2.25l-.62,64,.25,59c.12,32.5-21.12,53.5-63.62,53.5-33.88.5-58.75-13.12-61.38-40.75ZM2646.46,728.96c.25-26.75-9.5-41.5-27.5-41.75-19-.5-28.75,13.5-28.75,39.25,0,27.75,10,41.75,28,41.5,18.25,0,28-13,28.25-39Z"/>
    <path class="cls-2" d="M2694.96,790.83l.75-61.88-.75-62.25c0-1.5.88-2.25,2.38-2.25h33.62c1.38,0,2.25.75,2.25,2.25l-.75,62.25.75,61.88c0,1.62-.88,2.38-2.25,2.38h-33.62c-1.5,0-2.38-.75-2.38-2.38ZM2695.08,649.58v-29.12c0-1.38.88-2.25,2.38-2.25h33.38c1.38,0,2.25.88,2.25,2.25v29.12c0,1.5-.88,2.38-2.25,2.38h-33.38c-1.5,0-2.38-.88-2.38-2.38Z"/>
    <path class="cls-2" d="M2742.7,752.83c0-1.38.75-2.25,2.25-2.25h31.88c1.5,0,2.38.88,2.38,2.25.88,14,10.38,20.12,28,20.12,14.75,0,22.75-5.75,22.75-15.75,0-24.5-84.25-.75-84.25-54.75,0-26.75,21.5-41,56.25-41s56.38,13.12,58.75,39.62c.25,1.62-.75,2.5-2.25,2.5h-30.38c-1.5,0-2.25-.75-2.5-2.12-2-10.62-8.88-17.25-24.12-17.25-12.25,0-20,4.5-20,15.5,0,24.5,84.25-.5,84.25,54.25,0,27-25.5,42.25-60.38,42.25-37.38,0-61.38-15-62.62-43.38Z"/>
    <path class="cls-2" d="M2881.83,755.46l.25-64.5h-14.38c-1.5,0-2.38-.88-2.38-2.38v-21.88c0-1.38.88-2.25,2.38-2.25h14.25l-.25-30c0-1.5.88-2.25,2.38-2.25h33.12c1.38,0,2.25.75,2.25,2.25l-.25,30h28.62c1.38,0,2.25.88,2.25,2.25v21.88c0,1.5-.88,2.38-2.25,2.38h-28.75l.25,63.5c0,11,5.5,14.5,13.75,14.5,5.88,0,10.38-1,14.12-2,1.62-.5,2.62.38,2.62,2v19.75c0,1.25-.5,2.12-1.75,2.62-7.25,2.38-15.62,4.38-23.75,4.38-21.75,0-42.5-11-42.5-40.25Z"/>
    <path class="cls-2" d="M2957.96,790.83l.88-62.12-.88-62c0-1.5.88-2.25,2.38-2.25h32.62c1.5,0,2.25.75,2.25,2.38l-.88,19.38c10-15.25,27.25-22.75,46-22.75,2,0,4.12.25,6,.62,1.25.25,2,1.25,2,2.5v23.12c0,1.5-.88,2.38-2.38,2.25s-3.25-.25-4.62-.25c-26.5,0-46,14.75-46,44.25l.12,54.88c0,1.5-.88,2.38-2.25,2.38h-32.88c-1.5,0-2.38-.75-2.38-2.38Z"/>
    <path class="cls-2" d="M3089.45,833.08l13.38-38.62-51.5-127.25c-.5-1.62.25-2.75,1.88-2.75h37.38c1.38,0,2.25.62,2.75,1.88l17.75,51.12,10.25,29.5,8.5-29.5,14.75-51.12c.38-1.25,1.25-1.88,2.5-1.88h33.25c1.62,0,2.5.88,1.88,2.62l-57.25,166.75c-.5,1.25-1.25,1.88-2.62,1.88h-31c-1.62,0-2.38-1-1.88-2.62Z"/>
  </g>
  <g>
    <path class="cls-1" d="M1061.3,734.39c-40.41,160.89-149.35,247.63-300.32,309.85-4.49,2.33-29.94,11.24-35.39,14.03l.38-1.07c-51.34,16.94-106.2,26.11-163.21,26.11-287.49,0-520.54-233.06-520.54-520.54S275.28,42.22,562.76,42.22c201.1,0,365.72,95.99,452.41,262.91,2.4-1.04-3.12-17.9,32.9-37.94C954.81,85.33,781.2,0,562.76,0,251.96,0,0,251.96,0,562.76s251.96,562.76,562.76,562.76c290.66,0,522.11-165.1,551.9-447.87h0c-14.93,21.48-34.15,38.07-53.37,56.72Z"/>
    <path class="cls-1" d="M775.74,878.53c.57-.2,1.48-3.88,2.52-5.04l-5.05-7.58c-9.58,5.65-6.26-.59-9.37-2.44-5.25-3.11-20.32-8.62-22.71-10.78-5.63-5.06-4.57-11.99,4.4-9.44-4.77-18.24-8.51,4.79-20.15,0-1.93-9.2,6.81-2.19,10.27-6.52,2.43-3.04,2.99-9.23-1.5-11.07-5.68-2.34-2.37,8.72-12.46,7.65-4.69-.5-20.27-14.37-15.23-20.25,5.27,1.06,7.58,8.15,9.36,9.46,2.82,2.08,19.79-5.65,19.69-8.22-.29-7.44-7.74-6.83-10.12-8.85-2.06-1.75,5.87-3.31,5.32-6.72l2.23,6.78c11.3,2.95,5.74-6.08,9.88-8.98,3.49-2.45,10.93-.76,15.31-1.12-5.49,1.87-6.56,3.62-2.45,4.61-3.94.27-9.02,3.94-7.63,5.45.6.65,4.45-.54,5.04.02-6.19,2.47-6.68,3.8,0,5.04,2.79,5.04,6.14,9.24,10.08,12.59-.02.4-4.39,5.02-2.52,7.54,1.24,1.67,14.93,3.81,17.63.02-.95,2.62-3.6,4.14-7.94,4.56l.38,3c-2.53.61-15.51-2.4-12.61,3.75,1.24,2.64,10.46-1.8,7.59,8.85,3.14,1.09,4.75-2.5,5.03-2.53,1.87,6.05,7.64,4.47,12.59,2.52-3.3,4.81-12.57,4.78-12.62,11.31,6.99.09,8.56,3.49,12.62,6.32.5.35,3.45-.92,4.48.47,3.97,5.33-1.37,4.19,4.88,9.02,11.24-28.69,23.84-60.97,33.95-87.11,2.97-7.69,6.03-15.46,9.18-23.28-6.16,1.48-29.38,4.77-32.96,4.54-8.62-.56-12.02-3.22-17.01-9.43-5.75-7.15-7.91-17.23-4.57-26.08,1.93-5.1,6.94-.2,7.09-11.7.12-8.76-4.18-13.73,1.54-22.5,4.67-7.16,3.18.75,6.02-12.77,1.44-6.88,3.72-13.78,6.59-20.51-5.9-38.26-7.26-88.97,9.14-143.12-6.35-2.75-15.31.14-25.82,4.99l2.55,4.96c-21.82-3.14-18.65,18.29-20.34,20.01-.75.77-11.8-.35-13.71,5.21-2.97-10.63-5.64-1.79-10.47-.85-16.39,3.19-37.23-2.22-52.78,2.87-8.61,2.82-6.65,7.44-13.55,8.05-1.45-6.56,1.52-6.94-7.51-11.33,12.09-6.37,5.58-22.48-.04-31.49,7.78.73,11.3-5.59,17.66-8.9,2.25-1.17,7.25-.91,7.54-1.2.71-.72-3.76-10.12-2.14-15.78,1.31-4.58,8.22-7.41,9.64-10.71.21-.49-4.6-8.44-5-8.75,6.61-3.21,15.8-10.36,15.17-18.69-.56-7.44-7.58-9.5-9.4-12.28-2.98-4.56,3.22-8.13-5.77-9.33,5.8-11.89-1.06-12.16-4.55-19.57-4.1-8.7.82-14.6,2.03-23.24-4.87-1.21-11.22,2.12-15.44,1.21-3.28-.7-8.54-7.1-9.7-6.24-.21.16.74,4.48-1.66,5.06-3.84.93-8.08-1.01-12.89.7-.95.34-14.54,11.49-15.23,12.23-.49.53,2.2,4.49-.27,5.92-3.94,2.29-22.34,3.56-7.78,10.05-12.52,1.58-5.43,18.09,0,18.9-10.66,13.8-10.9,23.07-7.56,40.3,4.44,22.93,6.29,15.44,26.43,20.15,2.67.62-2.68,7.2-1.24,10.08-13.28.52-31.55,5.83-45.32,7.57,1.07-17.39-21.38-7.51-30.67-2.38-3.12,1.72-3.64,5.93-7.71,8.03-5.43,2.8-14.09,2.36-19.57,6.93-.33-.89-10.59-14.87-11.52-15.06-2.64-.55-23.02,12.84-27.54,15.04l-1.24-10.06c2.82.25,7.81,3.37,9.68,2.26.5-.3,6.33-9.16,6.51-9.71.4-1.22.78-8.91,1.44-12.7-1.4,7.34,3.75,5.45,8.5,4.79,20.12-2.79,9.42-10.5,15.55-14.61,7.36-4.94,10.16-.12,14.71-.32,1.42-.06,1.47-3.26,2.6-3.94,1.97-1.19,5.25-.82,5.85-1.52.87-1.01,5.57-22.96,5.71-25.96.29-6.35-1.86-2.38-5.05-1.23-7.22-13.71,18.93-38.52,27.75-48.52,1.25-1.42,3.07-2.1,4.96-1.9-2.51-5.54-13.07-2.18-15.09-10.04,14.58,5.08,22.97,8.68,38.7,4.85,15.29-3.72,26.49-13.32,38.84-19.76,3.7-1.93,9.2-1.52,13.07-4.08,5.66-3.74,26.79-53,27.4-61.02,1.14-15.07-15.84-13.42-18.58-18.16-2.53-4.37-.09-9.94-1.89-14.54-.49-1.25-11.17-7.92-11.47-8.57-.62-1.35,2.21-4.11,2.09-5.65-.14-1.96-4.93-1.25-5.19-3.1-.4-2.95,2.77-6,1.38-10.94-1.59-5.65-14.28-13.17-15.95-19.58-1.5-5.73,2.9-10.89,2.19-16.51-.42-3.31-15.21-9.8-16.49-11.83-2.55-4.04-.42-9.11-1.2-12.62h0c2.45-4.04,2.78-9.52,4.99-13.44,1.3-2.31,14.68-5.56-5.01-9.27-1.12-4.23,10.87-8.92,7.56-12.52-7.14-7.77-41.36-6.44-52.23-3.18-1.12.34-17.67,10.99-18.44,11.77-2.98,3.02-4.23,10.48-5.28,11.12-3.05,1.88-12.14-1.16-18.32,3.11-4.79,3.32-5.67,12.81-10.4,17.29-5.73,5.42-18.32,9.35-20.45,19.47-.39,1.86,1.91,5.56,1.68,5.76-.44.39-5.86.16-8.93,2.44-4.44,3.3-5.86,12.93-11.18,16.6-.63,5.48.72,3.98,4.21,1.83,6.34-3.92,8.8-16.67,18.39-11.99-.5,9.21-6.06,10.43-8.43,13.95-.87,1.3.6,3.95.11,4.43-2.85,2.81-9.55,3.66-11.99,7.44-2.66,4.11-.33,13.72-4.06,20.24-2.54,4.44-13.38,4.59-.78,9.39-9.42,2.3-8.85,18.58-13.84,24.13-1.59,1.77-9.15-.1-14.86,5.14-5.35,4.91-8.88,16.84-15.03,21.36-2.92,2.15-7.72,1.81-10.16,3.85-11.91,10-21.8,22.56-21.44,38.96.19,8.74,4.76,18.53,4.5,25.1-.16,4.16-3.88,7.41-3.81,9.89.3,10.64,20.46,32.37,32.87,31.45,9.51-.71,18.97-17.9,31.75-21.59,3.02-.87,4.73,1.58,4.99,1.52h0c3.3,9.29,6.37,22.37,10.7,30.86,2.68,5.26,11.88,12.77,12.04,13.67.94,5.4-2.58,9.18-2.58,10.89h0c-4.49-1.14-4.9,4.47-6.83,4.96-16.82,4.29-7.71-4.49-8.61-8.59-.75-3.4-9.85-2.95-8.44-11.67,1.69-10.45,12.63.73,11.26-9.87-13.93,8.56-2.77-9.84-11.26-7.53-7.69,2.09-10.27,11.03-11.94,11.99-3.88,2.24-12.25-1.62-15.83,5.6-1.51,3.05-2.61,23.95-2.53,29.01.03,2.15,3.9,5.18,3.8,11.3,0,.34-2.84,2.47-2.59,6,.32,4.54,6.19,9.69,4.59,13.65-3.13,7.75-21.63,3.77-27.19,10.57-27.55-4.16-22.47,8.78-30.56,23.6-.86,1.58-15.96,18.26-17.3,19.22-.85.61-9.06,4.71-10.08,5.04-2.92.94-15.31-.42-17.3,2.86-1.83,3.01,1.69,11.05-2.59,16.3-3.51,4.3-11.84,3.3-16.48,6.26-2.93,1.88-3.6,6.57-4.37,7.01-.64.36-13.79-2.22-14.29-2.75-1.21-1.28,1.01-5.73-2.02-7.08-10.1-4.52-12.54,2.34-13.48,2.6-2.63.72-7-.52-10.06.03v2.46c7.83-1.13,4.75,6.93,5.02,12.63-1.82.24-4.69,3.27-7.54,2.53-.86-1.02,1.61-7.22-1.31-7.69-10.09-1.62-23.76,2.83-33.94,2.65-.85,6.79-.37,6.57,5.05,8.81-17.14,6.12,14,12.6,16.55,16.23,1.29,1.83-2.44,6.88-1.47,7.69l12.58-2.51c3.32,4.34-.7,19.37.04,20.06.63.59,6.08-.59,8.81,2.56,11.37,13.09,1.4,50.2-8.82,63.03-1.52-.58-5.74.76-8.54-.19-23.74-8-52.58-9.06-76.48-19.25-3.09-1.32-2.92-5.28-4.88-5.73-10.9-2.49-19.13,7.52-30.68,5.32-4.14,6.93.27,13.7-.18,21.13-.23,3.79-2.49,6.92-2.66,8.79-1.23,13.11-2.14,34.8-13.28,44.64-2.74,2.42-7.8,2.26-9.06,3.52-.83.83-2.12,20.3-.45,23.25,2.03,3.58,7.93.2,7.63,2.85-1.1,9.73-7.77,19.67-10.02,29,7.78-3.34,15.18,3.71,19.35,4.27,3.53.48,7.3-1.95,10.87-1.74,15.26.91,11.2,11.49,15.68,20.84,9.09,18.98,22.4-.14,38.75-.41,6.98-.12,34.43,6.95,38.01,5.64,5.48-2.01,6.69-11.75,8.82-12.97,3.94-2.25,12.57,1.45,17.25-1.65,3.36-2.22,2.71-10.29,5.54-13.36,2.44-2.64,13.87-5.04,14.39-5.77,2.43-3.39-4.76-11.82-5.82-15.51-2.71-9.49,14.98-20.24,20.97-26.09,2.47-2.42,1.98-7.04,3.13-8.09,5.36-4.84,38.03-.87,41.33-20.82.67-4.06-1.57-4.68-1.58-4.94-.16-4.77-3.23-9.76,1.32-15,14.89-17.13,36.14,8.92,50.22,7.54,3.39-.33,14.07-12.24,18.99-15.21,2.62-1.58,8.54-1.06,12.41-3.95,7.45-5.55,2.67-13.82,16.21-8.39,10.6,4.25,20.74,13.25,19.33,25.82-.11.95-10.35,5.75-7.64,11.69,6.55,2.79,10.64-7.81,11.31-7.53,7.67,3.21,2.53,14.12,7.51,14.76,1.66.21,5.43-3.56,8.41-1.86,3.23,1.84,13.44,16.14,21.85,20.09,4.41,2.07,15.12,1.18,16.17,2.54,1.01,1.31-.49,5.7.41,7.7,6.08,13.47,16.85,1.2,17.43,2.1-3.69,15.9,8.79,9.12,14.56,13.17,2.89,2.03,7.2,19.44,10.63,23.39-10.37-.44-6.44,7.17-7.78,8.45-5.58,5.29-13.88-9.43-19.89-4.69-5.42,4.28,9.53,5.27,5.02,10.03-.68.71-17.59,4.75-19.06,4.8-.76.03.33-6.7-12.48-4.9-6.78.95-11.43,6.44-18.84,5.18l10.68,10.81c9.89,4.12,20.88,6.44,30.27,9.47,2.39.77,9.2,12.22,19.35,7.24,3.4-5.8-3.65-23.62.27-27.43,2.64-2.56,11.57,6.64,21.14-10.43,1.65-2.94.7-7.8,1.96-9.3,1.91-2.25,16.57-.44,5.57-15.44-4.9-6.68-11.42-2.6-6.08-17.85,7.6-2.09,33.24,20.8,29.69,1.66-1.99-10.71-36.72-24.01-47.32-24.34-1.15-4.25,4.68-1.25,5.11-3.74,2.33-13.32-11.38-5.3-18.39-6.69-17.35-3.44-19.67-21.98-26.96-31.18-3.82-4.82-13.11-7.38-17.72-12.51-10.95-12.2-.02-11.57.13-12.63.78-5.69-5.92-10.2-5.16-11.26.56-.78,14.69-7.13,17.63-7.6-.42.37.39,1.9,0,2.52-6.31,10.17,8.49,15.53,11.66,18.59,4.27,4.12,11.22,13.67,15.46,16.55,9.98,6.78,22.7,3.81,15.72,17.74,11.63-5.82,9.39,1.93,11.75,2.51,6.42,1.58,16.42-.99,23.51.02,1.91,1.62,4.22,1.87,5.04,2.52,5.32,4.23,12.05,10.98,17.63,12.59.24,5.27,1.71,11.09,1.98,16.37.51,10.14-7.57,12.13,5.58,21.42h0,0c-6.55,8.3,2.26,8.9,8.17,12.69,1.47.94,1.84,4.12,2.53,4.44,1.96.92,5.13-1.94,6.96-.86,6.03,3.56-5.16,18.91,6.39,28.96,6.95,6.04,8.95-3.77,11.16-2.39.18.11-.53,2.59,1,4.01,10.07,9.4,2.08,6.87,4.62,12.99.69,1.65,7.97,6.58,10.81,5.72,4.07-1.24-3.48-11.97,11.3,4.96l1.27-10.06c11.51,29.09,13.91,7.23,6.3-10.08,10.8,1.89,7.39-3.7,7.59-12.59,4.86-.85-.16,6.84,6.25,5.04,2.77-.78-.04-6.01,2.53-5.05,5.55,3.78.74,13.71,8.81,12.62.73,4.79-5.14,1.4-7.52,2.62-.44.23,2.25,7.14,0,9.92,2.18,2.1,9.97-5.74,12.59-7.54-.42-.96.2-3.46.01-5.03h7.54c-.18,4.72-5.83,3.84-7.56,5.03,2.59,5.96,9.21-1,10.05,0,1.81,2.16-7.13,11.24,1.24,10.05,6.52-4.33,2.23-9.28,1.3-15.07,2.92-.6,7.81.79,10.07-.02-1.9,6.99,8.71,5.93,13.88,7.15.16-.41.32-.82.48-1.23-2.8-5.19-8.29-6.82-14.36-5.93ZM755.59,805.49l2.52-5.04c1.38,1.71.55,3.39-2.52,5.04ZM603.68,322.75c5.41-4.52,9.27-9.44,9.79-17.57,9.31-5.39,8.46-11.15,6.09-21.11,1.6-.5,4.34-3.32,5.01-2.52.5,6.3,3.21,15.12-.37,20.94-1.9,3.08-5.82,3.7-6.5,4.95-1.27,2.36-.13,6.05-.91,7.24-5.3,8.18-7.61,12.6-17.39,14.73,1.61-1.91,3.08-4.19,4.27-6.66ZM576.74,216.05h0,0ZM582.91,339.33c4.42-5.08,11.56-3.29,6.41-9.9,2.45-.29,5.19.33,7.57-.02-8.52,4.59-8.33,13.08.36,19.27,9.11,20.69,12.38,37.15-10.69,48.39l2.78,5.4c-7.71-13.08-19.57-2.21-20.17-21.32-.47-14.79,4-30.57,13.75-41.8ZM501.05,529.23c-.02-.37,0-.68.12-.83-.02.32-.06.59-.12.83ZM674.98,805.49h0s0,0,0,0h0ZM750.56,876c-4.58-4.6,8.01-8.19,12.57-7.52,2.44,1.1-11.08,9.02-12.57,7.52Z"/>
    <path class="cls-1" d="M271.71,439.94c-.94,3.49-5.47,4.63-4.33,9.11,7.71,2.68,9.95-12.5,10.93-12.15,5.54,1.97.67,8.08,1.02,10.62.42,3.07,6.13-.22,5.06,3.95-25.07,5.79-5.8,6.63-5.04,7.49,5.26,6.01-4.65,10.35-4.66,11.04-.06,2.33,3.39,5.52,1.42,8.42-1.59,2.35-4.98,1.58-6.31,2.31-1.18-4.57-12.83-6.92-15.95-6.91-1.17,0-15.11,15.4-10.85,19.1l-19.45-4.88c-2.27,3.09-.23,9.74-.59,10.96-.53,1.78-4.52.34-4.54,4.71-.02,4.49,6.3,17.26,5.1,18.4-.65.62-13.78,4.15-15.89,7.19-2.27,3.27-2.28,14.28.44,17.41,11.06,12.72,30.58-2.06,41.21-2.53,3.89-.17,11.15,3.53,13.01,2.16,3.48-2.55,11.76-33.9,9.94-38.83,21.18-3.77,8.36-13.99,7.23-25.52-.49-5.01-1.05-7.17,4.95-6.11-3.46,6.75-2.42,10.1,4.85,7.28-9.72,22.2,15.33,13.11,17.06,14.63.4.35-2.47,4.63-2,7.88.7,4.84,5.26,9.44,4.08,14.73-2.58,11.55-16.12-.23-23.98,1.74l4.87,9.71-7.32,4.88,9.74.04c-2.18,3.95-1.84,9.6-6.52,11.71-4.35,1.97-28.59,1.99-8.77,12.07,5.97,3.04,16.89.36,15.3,7.84-3.15-1.34-11.52,2.57-11.98,2.17-1.08-.92,1.63-5.55-2.62-4.58,3.68,16.36-17.06,12.34-19.5,24.32,12.35,5.69,12.08-2.02,13.76-2.45,8.23-2.14,14.09,5.44,16.53,4.89,3.15-.71,3.99-9.98,9.81-9.84,3.04.07,5.6,4.02,8.11,4.5,8.11,1.53,35.08,2.49,42.83.41,6.48-1.74,11.93-5.46,13.69-12.07-18.87,1.5,7.27-14.65,7.3-23.19.03-10.39-14.7-9.77-16.63-11.34-1.38-1.13-4.45-21.66-6.51-26.38-2.67-6.11-8.28-8.95-9.72-12.19-2.53-5.66-.34-11.84-1.82-17.66-1.19-4.68-7.83-9.22-8.83-13.35-2.69-11.09,38.19-32.36-7.64-34.74,9.18-9.05,18.8-18.31,21.89-31.63-16.44-2.32-14.7,10.76-19.33,13.52-2.79,1.67-11.16-4.21-14.88-2.54-5.3,2.38-5.35,14.19-13.27,15.79l3.65-17.02c-15.27,1.22-14.12,4.14-20.31,13.82-.95,1.49-4.47,1.89-5.15,3.1-1.19,2.11,1.29,5.46.59,8.04Z"/>
    <path class="cls-1" d="M174.93,261.4c1.65,2.54,26.44,2.77,12.08,17.17,10.23-4.87,11.73,3.78,18.36,4.94,6.44,1.13,35.77-2.15,42.58-3.57,2.01-.42,12.83-6.07,14.43-7.55,12.77-11.75-4.69-24.74,5-35.17-9.26,2.07-8.3-9.76-15.85-7.4-.8.25-2.71,12.82-7.27.07-8.5,9.78-3.97,1.23-9.14-.85-5.41-2.18-8.92,1.36-12.48.96-2-.22-.45-6.89-7.63-5.05-1.56.4.07,7.63-6.06,4.91,3.12-7.85-2.09-13.92-2.55-21.8-4.45-3.87-29.02,11.17-29.07,13.29-.03,1.48,24.23,14.67-2.47,10.97-2.93,10.71,5.96,5.74,8.64,9.55,2.13,3.01.85,8.64,1.11,12.36-6-1.43-14.04.41-9.66,7.16Z"/>
    <path class="cls-1" d="M464.63,790.01c3.51-10.53,5.83-19.08,4.87-30.48-1.28-15.18-5.22-1.74-6.46-1.07-5.46,2.93-11.57-.09-12.45,8.9-.85,8.68,3.75,16.51,9.17,22.66-.86.43-3.32,6.11-6.12,7.29-4.65,1.96-3.54-9.75-8.46-4.85-.41.41-2.38,9.91-2.48,11.31-.33,4.52,4.4,1.79,5.08,6.78,1.64,12-8.48,30.54,8.43,30.88,4.12.08,2.72-3.64,5.46-5.02,7.33-3.68,6.31,5.38,9.88-11.43,1.75-8.25,5.42-34.86-6.91-34.95Z"/>
    <path class="cls-1" d="M755.76,884.6l-39.65-1.59-5.19,3.13,3.6,8.74c10.73-.48,27.01,3.55,37.98.73,1.44-3.67,2.98-7.6,4.61-11.73l-1.35.72Z"/>
    <path class="cls-1" d="M349.23,814.65c-10.19,7.01,4.3,8.58,7.01,16.75,4.53-5.16,12.35-8.83,10.95-17-6.63-1.96-11.68-4.07-17.97.25Z"/>
    <path class="cls-1" d="M569.38,466.11c12.12-5.5,9.91-16.64,14.58-26.76-16.23.82-19.2,12.8-14.58,26.76Z"/>
    <path class="cls-1" d="M350.15,393.06c-.55,7-.41,14.79,5.45,6.55,4.32-6.08,8.07-13.41,6.74-21.15-3.38-3.73-32.28,23.51-12.19,14.6Z"/>
    <path class="cls-1" d="M301.49,345.93c.87,3.94-.48,8.85-.01,13.02,8.03,1.7,3.84-7.92,7.23-13.01,1.34-2.01,4.72-1.45,4.87-1.67,4.66-7.11-12.28-8.66-16.97-4.76-2.44,5.97,4.39,4.14,4.89,6.42Z"/>
    <path class="cls-1" d="M328.28,838.71c6.16,2.54,7.8-11.69,7.27-12.15-5.14-4.42-12.93,5.34-7.27,12.15Z"/>
    <path class="cls-1" d="M369.66,811.96c-2.54,6.16,11.69,7.8,12.15,7.27,4.42-5.14-5.34-12.93-12.15-7.27Z"/>
    <path class="cls-1" d="M296.58,502.65c-2.1-2.24-11.38,5.21-9.72,9.72,7.36,1.1,10.82-2.11,9.72-9.72Z"/>
    <path class="cls-1" d="M530.41,501.45c-2.78,7.73,3.38,6.37,9.71,6.05,2.4-2.22-6.77-14.2-9.71-6.05Z"/>
    <path class="cls-1" d="M350.16,159.27c-1.29-1.44-16.21,6.35-12.15,9.72,1.04.87,17.23-2.18,12.15-9.72Z"/>
    <path class="cls-1" d="M557.16,902.02c1.21-1.02-4.46-9.36-4.91-9.68-8.84-6.19-2.99,16.33,4.91,9.68Z"/>
    <path class="cls-1" d="M720.35,790.02c-3.21,3.12,10.86,16.09,9.73-.01-3.22-.18-6.51.1-9.73.01Z"/>
  </g>
  <path class="cls-2" d="M877.36,468.63c.36,20.22,9.72,38.49,17.43,56.71,3.6,8.52,6.92,17.22,8.67,26.33,1.58,8.22,2.85,19.69-5.23,25.07-8.23,5.48-13.85-3.22-17.9-9.25-4.35-6.48-9.7-11.97-18-12.15-16.93-.37-26.19,15.75-24.74,31.08.81,8.57,4.63,16.42,9.36,23.48,2.83,4.22,6.05,8.16,9.29,12.07,2.66,3.2,6.92,7.41,5.69,12.02-1.39,5.19-6.88,2.36-10.53,2.19-3.16-.15-6.11.94-8.2,3.34-4.56,5.23-3.78,13.15-.16,18.62,4.75,7.17,14.86,11.89,15.96,21.16,1.09,9.16-11.11,9.33-16.17,14.1-10.47,9.86-2.59,24.64,2.69,34.92,3.44,6.71,7.23,13.38,10.61,20.21,1.44-1.43,2.89-2.86,4.36-4.26,6.29-6,12.78-11.72,19.37-17.32,2.93-5.16,5.75-10.99,6.9-16.7,1.36-6.73,1.8-12.82.98-19.68-.88-7.37-2.3-14.62-6.77-20.73-.26-.36.26-.81.55-.45,4.4,5.59,6.65,12.55,8.75,19.26,2.06,6.58,4.26,14.14,3.99,21.1-.08,1.99-.29,3.92-.64,5.82,3.87-3.11,7.78-6.19,11.71-9.25,3.22-2.51,6.4-5.06,9.56-7.63,1.14-3.17,2.59-6.22,3.84-9.41,1.95-5.01,4.13-9.95,5.91-15.03.95-2.71,1.76-5.5,2.51-8.3.02-.42.07-.85.07-1.27,0-4.08-.6-7.98-1.91-11.85-2.84-8.41-7.72-16.37-12.22-23.97-.13-.22.24-.45.38-.24,5.51,7.91,11.92,15.22,16.43,23.78.25-1.78.5-3.57.67-5.36,1.72-18.24-3.72-37.26-13.52-52.59-.29-.46.34-1.02.67-.56,8.17,11.55,14.17,24.26,17.65,37.79.93-2.9,1.82-5.81,2.5-8.74,2.51-10.87,3.71-22.48,2.03-33.55-.05-.32.42-.4.49-.09,2.61,11.1,3.04,22.27,1.57,33.56-.91,6.93-1.89,14.35-4.18,21.18.1.72.24,1.44.33,2.17,1.2,10.19.27,20.07-2.96,29.82-.86,2.58-1.82,5.12-2.88,7.63,5.41-5,10.65-10.19,15.66-15.65,13.35-14.56,24.95-30.6,36.3-46.74,3.22-4.59,6.39-9.22,9.52-13.86,1.25-4.3,2.3-8.66,3.23-12.97,2.44-11.27,3.74-22.76,4.15-34.28.51-14.32-.31-28.84-2.7-43.05-1.09-2.71-2.48-5.28-4.14-7.71-5.42-7.94-13.33-14.15-21.03-19.75-.41-.3.03-.92.45-.64,8.33,5.44,17.01,10.66,22.92,18.86-.9-4.08-1.9-8.14-3.09-12.14-3.5-11.77-8.06-23.13-14.47-33.63-.21-.34.37-.71.59-.37,12.34,18.99,20.04,40.03,23.85,62.31.62,3.61,1.14,7.27,1.61,10.94.22-2.16.44-4.32.64-6.49.94-10.2,2.33-20.38,3.15-30.59,1.66-20.74,2.15-41.67-1.92-62.17-.13-.63.84-.8.98-.17,4.5,20.36,5.55,41.29,4.79,62.08-.38,10.46-.87,20.86-1.92,31.28-.84,8.35-1.18,17.81-4.03,26.01.5,11.8.03,23.63-1.66,35.14,22.98-35.7,43.88-72.71,65.18-109.48,1.16-3.73,2.34-7.44,3.2-11.3,1.31-5.87,2.35-11.83,3.32-17.77,1.93-11.79,3.27-23.68,4.53-35.55,2.43-22.87,4.25-46.5-2.75-68.78-.23-.75.87-1.29,1.13-.52,5.9,17.06,6.99,35.15,6.6,53.06-.03,1.34-.1,2.68-.14,4.02.6-2,1.21-4,1.85-5.97,3.81-11.78,9.22-22.69,14.82-33.69.24-.46,1.01-.21.78.28-5.01,10.91-8.58,22.57-11.91,34.09-2.46,8.51-4.21,17.22-6.42,25.8-.08,1.4-.14,2.79-.22,4.19-.55,9.84-1.18,19.71-3.22,29.38-.33,1.57-.69,3.14-1.07,4.71,8.3-14.14,16.71-28.21,25.4-42.1,6.43-10.28,13-20.45,19.74-30.5.88-1.48,1.88-2.92,2.94-4.33,8.85-13.04,18.01-25.85,27.61-38.34,5.16-8.96,9.56-18.64,10.14-29.08.03-.51.8-.44.79.06-.17,6.73-1.24,13.56-3.74,19.76,6.63-8.33,13.46-16.52,20.55-24.52.26-.29.77.05.51.36-15.82,18.81-30.34,38.52-43.99,58.82,5.19-4.67,11.07-8.63,16.94-12.32,14.37-9.06,30.1-14.27,45.97-19.96.62-.22,1.06.7.43.94-11.94,4.62-24.15,9.63-35.49,15.86,5.77-.2,11.55.25,17.32.33.35,0,.38.59.03.62-2.86.23-5.72.51-8.58.8-2.85.3-5.69.45-8.54.69-2.51.21-4.73.82-7.02,1.87-1.01.46-1.99,1.02-2.98,1.55-6.37,4.22-12.06,9.29-17.56,14.57-3.01,2.89-6.07,5.72-8.9,8.8-.84.92-1.66,1.86-2.46,2.82-16.1,25.08-31.09,50.9-45.75,76.9.31-.3.62-.61.94-.91,6.77-6.16,14.51-10.78,22.49-15.19,11.67-6.45,24.2-11.61,37-15.59,3.3-2.18,6.56-4.43,9.71-6.85,2.62-2.01,5.07-4.21,7.66-6.26,2.6-2.06,5.15-4.05,7.56-6.34.41-.39.94.28.56.67-2.5,2.54-4.67,5.34-7.13,7.91-2.34,2.45-4.9,4.79-7.52,6.95-.53.44-1.07.87-1.62,1.29,1.47-.39,2.95-.79,4.42-1.14,10.24-2.48,20.67-4.1,31.14-5.11.68-.06.88.97.18,1.06-22.25,2.94-44.34,10.04-64.08,20.75-.69.38-1.36.79-2.04,1.17.22-.02.44-.05.66-.06,10.91-.61,21.4,2.11,31.97,4.42.57.12.36,1.11-.22,1-9.99-1.88-20.49-2.03-30.56-.68-4.62.62-9.24,1.41-13.74,2.7-.22.06-.43.15-.65.21-4.58,2.99-9.06,6.13-13.5,9.35-4.78,3.46-9.75,6.65-14.53,10.11-2.87,2.08-5.33,4.35-7.64,7.06-.36.42-.71.84-1.06,1.26-5.33,9.55-10.64,19.11-15.97,28.65-5.53,9.91-11.09,19.8-16.71,29.67,2.44-2.32,4.97-4.48,7.88-6.38,8.78-5.74,18.27-9.91,28.31-12.91,10.81-3.24,21.92-5.46,33.05-7.29,11.36-1.87,22.78-3.73,34.25-4.75,12.86-1.14,25.53.05,38.35,1.07.69.06.6,1.12-.09,1.08-11.31-.62-22.71-.83-33.97.62-10.64,1.37-21.18,3.76-31.71,5.82-8.18,1.6-16.29,3.38-24.26,5.6,2.43.19,4.84.48,7.23.94,10.71,2.06,21.05,5.53,31.63,8.13.5.12.31.99-.19.89-10.34-2.07-20.92-3.2-31.46-3.43-5.11-.11-10.21-.26-15.32-.15-3.88.09-8.12.84-12.11.57-5.03,2.13-9.96,4.54-14.75,7.36-4.89,2.88-9.68,6.23-14.22,9.64-4.51,3.4-7.79,8.05-12.17,11.54-.1.08-.21.12-.32.18-1.29,1.72-2.55,3.46-3.71,5.28-.69,1.08-1.36,2.22-2.06,3.33-8.39,14.32-16.96,28.54-25.82,42.59-.23.7-.46,1.39-.71,2.09.35-.18.67-.39,1.03-.56,8.71-4.05,18.2-5.32,27.69-5.93.14-.03.29-.06.44-.09,3.91-.82,7.8-1.91,11.59-3.18,8.01-2.69,15.86-6.04,23.69-9.19,8.52-3.42,16.32-8.48,23.79-13.75,7.37-5.2,14.19-10.94,20.36-17.53.36-.39,1.06.24.69.64-12.65,13.93-26.44,27.08-42.89,36.46-4.15,2.37-8.63,4.39-13.19,6.17,18.6.49,37.03,2.83,55.42,6.19.55.1.48.96-.07.87-19.7-3.39-40.06-3.56-59.99-1.47,3.47,1.16,6.91,2.62,10.25,3.92,5.39,2.1,10.69,4.58,15.85,7.2.56.28.25,1.22-.34.94-4.95-2.37-10.02-4.11-15.38-5.27-5.4-1.16-10.61-1.15-16.09-1.36-5.19-.19-10.33-.71-15.53-.64-2.69.03-5.37.05-8.06-.02-4.18,1.07-8.27,2.4-12.16,4.15-5.22,2.36-10.06,5.63-14.68,8.98-2.93,2.12-5.63,4.5-8.4,6.79-5.91,8.62-11.99,17.13-18.35,25.45-5.7,7.47-11.73,14.55-18.11,21.31,6.36-1.87,12.87-3.01,18.99-3.45,3.74-.27,7.51-.22,11.28-.02.04-.03.08-.05.13-.08,2.98-1.83,6.09-3.32,9.37-4.53,6.54-2.4,13.33-3.85,20.04-5.68.59-.16.9.84.32,1.02-6.4,2.02-12.74,4.49-18.71,7.55-1.45.74-2.89,1.51-4.31,2.32,13.12,1.6,26.09,5.59,37.98,10.72.61.26.28,1.22-.35.98-8.67-3.36-17.82-5.2-27.09-5.79-7.39-.48-14.62.29-21.84,1.48-.37.16-.73.37-1.1.48-.31.09-.58,0-.82-.15-1.11.19-2.22.37-3.33.58-8.46,1.6-16.69,4.02-24.76,6.99-5.13,1.89-10.14,4.12-15.18,6.23-1.03.89-2.04,1.8-3.08,2.68-12.05,10.21-24.03,20.45-35.52,31.25,3.21-.86,6.55-1.25,9.81-1.17,5.5.14,11.26,1.84,16.43,3.6,5.2,1.78,10.25,3.85,15.13,6.42.22.12.02.42-.19.37-5.19-1.28-10.52-2.32-15.88-2.45-5.29-.13-10.23.79-15.42,1.67-8.06,1.35-16.03,3.13-23.83,5.31-7.28,7.51-13.1,9.13-20.23,16.79-.75,1.01-7.6,7.36-8.35,8.35-2.66,3.53-5.63,9.83-8.35,13.32-4.65,5.98-4.44,9.74-8.96,15.83-2.92,3.93-5.72,8.68-5.4,13.76.7,11.01,14.23,12.81,21.71,7.29,5.31-3.91,8.21-10.23,10.72-16.14,3.05-7.18,6.22-14.31,9.72-21.28,3.21-6.38,7.05-13.41,13.41-17.15,1.92-1.13,4.12-2.07,6.36-2.6,10.19,1.26,20.45,2.42,30.68,3.14,7.77.54,17-1.27,21.62-8.2,2.32-3.48,2.64-7.47,2.81-11.53.18-4.3.52-8.91,5.23-10.53,8.54-2.93,16.61,4.45,24.22,6.98,6.53,2.17,14.35,1.35,18.78-4.5,1.91-2.52,2.56-5.67,1.72-8.71-.82-2.97-4.82-6.66-3.87-9.84,1.49-4.97,8.61-3.25,11.96-2.12,4.39,1.49,8.69,3.2,13.13,4.55,15.12,4.58,33.85,5.8,45.67-6.77,10.08-10.72,8.51-29.68-5.88-35.68-6.32-2.63-17.49-2.33-20.88-9.35-4.09-8.44,5.36-15.47,12.22-17.74,17.12-5.65,36.26-2.68,53.85-1.67,16.7.96,34.74.86,49.94-7.09,12.86-6.73,23.54-19.23,24.59-34.03.52-3.31.46-6.62-.71-9.87-2.81-7.78-10.86-12.16-18.48-14.01-4.63-1.12-9.22-1.43-13.98-1.21-5.76.27-13.09,1.19-17.55-3.44-5.06-5.26.57-11.45,5.58-13.84,6.03-2.87,12.78-4.52,19.1-6.6,13.19-4.34,26.52-8.4,39.58-13.12,11.43-4.12,22.6-9.6,30.66-18.95,6.87-7.96,11.33-19.17,8.6-29.7-2.35-9.1-9.33-17.4-18.8-19.36-11.06-2.3-20.55,7.04-31.38,4.93-6.23-1.21-8.64-6.84-5.22-12.17,3.17-4.95,9.38-6.64,14.69-8.18,11.92-3.46,23.27-8.23,33.85-14.77,10.15-6.27,21.46-14.11,27.67-24.56,5.19-8.72,5.86-20.74-2.16-28.12-7.35-6.75-16.58-3.35-24.86-.69-3.92,1.26-8.58,2.6-12.53.69-5.07-2.45-6.53-8.87-5.86-14,1.76-13.5,17.78-20.17,26.88-28.16,8.14-7.14,14.43-17.3,10.29-28.28-1.53-4.07-4.49-7.79-8.51-9.62-4.72-2.14-9.01-.5-13.77.47-5.87,1.2-9.68-2.85-10.44-8.47-.85-6.31,3.27-11.92,7.08-16.51,5.6-6.76,13.61-14.89,13.65-24.24.05-.14.13-.25.16-.4.73-3.84-.8-7.49-3.59-10.12-.91-.86-1.87-1.57-2.85-2.14-3.73-2.83-8.59-3.93-12.93-1.37-.38.22-.67.51-.88.82-2.82,1.18-5.47,3.03-7.67,5.36-4.08,4.31-6.71,9.56-9.68,14.64-3.01,5.14-6.83,11.13-13.01,12.65-5.29,1.3-10.91-.53-11.86-6.39-.8-4.95-.54-9.75-4.28-13.6-6.48-6.67-17.93-5.93-24.88-.5-10.49,8.2-12.04,22.39-16.22,34.11-2.12,5.93-5.23,12.31-10.99,15.46-4.5,2.46-11,3.44-15.17-.23-6.65-5.85-3-17.7-5.13-25.37-2.63-9.46-12.13-13.82-21.42-11.68-11.99,2.76-18.28,14.51-22.22,25.14-4.29,11.6-6.93,23.88-7.77,36.22-.42,6.08-.35,12.17.03,18.26.36,5.68.98,12.33-2.71,17.14-3.67,4.76-9.53,4.81-12.89-.31-3.29-5-2.84-11.04-2.92-16.75-.07-5.07-.54-10.19-3.17-14.65-2.46-4.17-6.3-7.25-10.68-9.22-9.25-4.17-19.77-2.57-27.93,3.19-21.55,15.22-18.86,45.16-18.24,68.21.19,7.15.38,14.29.58,21.44.17,6.49.83,13.19.29,19.67-.45,5.38-3.96,13.33-10.77,10.63-5.99-2.37-7.74-9.46-9.42-14.97-2.56-8.43-6.9-16.82-14.24-22.06-6.55-4.68-13.91-4.73-20.65-1.25-16.31,7.1-24.6,25.81-24.28,42.96Z"/>
</svg>