<?xml version="1.0" encoding="utf-8"?>
<!-- Generator: Adobe Illustrator 27.5.0, SVG Export Plug-In . SVG Version: 6.00 Build 0)  -->
<svg version="1.1" id="Capa_1" xmlns="http://www.w3.org/2000/svg" xmlns:xlink="http://www.w3.org/1999/xlink" x="0px" y="0px"
	 viewBox="0 0 1200 624" style="enable-background:new 0 0 1200 624;" xml:space="preserve">
<style type="text/css">
	.st0{fill:#FFFFFF;}
</style>
<g>
	<g>
		<path class="st0" d="M530.8,229.2c0-20.7,12.8-34.1,32.8-34.1s32.9,13.1,32.9,34.1c0,19.9-13,33.8-32.9,33.8
			S530.8,249.1,530.8,229.2L530.8,229.2z M581.9,229.2c0-14.2-6.4-23.2-18.3-23.2s-18.2,8.7-18.2,23.2s6.6,22.9,18.3,22.9
			S581.9,243.4,581.9,229.2z"/>
		<path class="st0" d="M599.9,276.5l0.3-34.4l-0.3-27.6c0-0.6,0.3-0.8,0.9-0.8h12.3c0.6,0,0.9,0.3,0.8,0.9l-0.2,4.7
			c3.3-4.1,8.1-6.5,14.1-6.5c13.6,0,20.7,10.8,20.7,24.7s-8,25-21,25c-5.8,0-10.4-2-13.6-5.9l0.2,19.9c0,0.6-0.3,0.9-0.8,0.9h-12.5
			C600.2,277.4,599.9,277.1,599.9,276.5L599.9,276.5z M634.3,238.2c0-10.6-3.6-16-10.4-16s-10.4,5.1-10.5,15.1
			c-0.1,10.1,3.5,15.8,10.2,15.8C630.7,253.1,634.3,248,634.3,238.2L634.3,238.2z"/>
		<path class="st0" d="M651.6,237.7c0-15.2,9.1-25.3,24.4-25.3s24.4,10.4,24.7,27.1c0,0.6-0.3,0.9-0.9,0.9h-34.2
			c0.6,9.1,4.1,13,10.8,13c4.7,0,8-2,9.3-6.9c0.1-0.5,0.4-0.7,0.9-0.7h11.7c0.6,0,0.9,0.2,0.8,0.6c-1.1,8.7-9.4,16.4-23,16.4
			C660.2,262.8,651.6,252.3,651.6,237.7L651.6,237.7z M685.6,231.6c-0.6-5.1-3.4-9.9-9.6-9.9c-5.6,0-8.9,3.4-10.1,9.9H685.6
			L685.6,231.6z"/>
		<path class="st0" d="M703.9,260.7l0.3-22.1l-0.1-24.1c0-0.5,0.3-0.8,0.9-0.8h11.7c0.6,0,0.8,0.3,0.8,0.9l-0.2,5.2
			c3.2-4.2,8.7-7.2,15.4-7.2c10.1,0,16.7,6.9,16.7,18.6v10l0.2,19.5c0,0.6-0.3,0.9-0.8,0.9h-12.4c-0.6,0-0.9-0.3-0.9-0.9l0.2-19.5
			v-9.9c0-5.2-3.1-8.6-7.3-8.6c-5,0-10.4,4.6-10.4,14.9v3.5l0.2,19.5c0,0.6-0.3,0.9-0.8,0.9h-12.6
			C704.2,261.5,703.9,261.2,703.9,260.7L703.9,260.7z"/>
		<path class="st0" d="M530.8,303.4c0-20.5,13-33.9,31.9-33.9c16.1,0,26.4,7.9,29.9,21.5c0.2,0.6-0.1,1-0.7,1h-12.9
			c-0.5,0-0.8-0.2-0.9-0.7c-2.1-7.2-7.2-11-15.2-11c-11.3,0-17.4,9-17.4,23.4s6.3,23,17.8,23c9.3,0,15.2-5.4,15.6-15.5h-16.1
			c-0.6,0-0.9-0.3-0.9-0.9v-8.7c0-0.6,0.3-0.9,0.9-0.9h30.5c0.5,0,0.8,0.4,0.8,1.1c0.1,23.9-10.9,35.7-30.9,35.7
			S530.8,323.6,530.8,303.4L530.8,303.4z"/>
		<path class="st0" d="M596.4,312.1c0-15.2,9.1-25.3,24.4-25.3s24.4,10.4,24.7,27.1c0,0.6-0.3,0.9-0.9,0.9h-34.2
			c0.6,9.1,4.1,13,10.8,13c4.7,0,8-2,9.3-6.9c0.1-0.5,0.4-0.7,0.9-0.7h11.7c0.6,0,0.9,0.2,0.8,0.6c-1.1,8.7-9.4,16.4-23,16.4
			C605.1,337.2,596.4,326.7,596.4,312.1L596.4,312.1z M630.5,306c-0.6-5.1-3.4-10-9.6-10c-5.6,0-8.9,3.4-10.1,10H630.5L630.5,306z"
			/>
		<path class="st0" d="M648.4,312.1c0-15.2,9-25.3,24.6-25.3s24.5,9.8,24.5,25s-8.8,25.3-24.5,25.3S648.4,327.4,648.4,312.1z
			 M683.2,312.1c0-10.8-3.3-16-10.2-16c-7.1,0.1-10.3,5.3-10.3,16.1s3.4,15.6,10.4,15.6S683.2,323.1,683.2,312.1L683.2,312.1z"/>
		<path class="st0" d="M698.8,320.9c0-0.5,0.3-0.8,0.8-0.8h11.9c0.6,0,0.9,0.3,0.9,0.8c0.3,5.2,3.9,7.5,10.4,7.5
			c5.5,0,8.5-2.1,8.5-5.9c0-9.1-31.3-0.3-31.3-20.4c0-10,8-15.2,20.9-15.2s21,4.9,21.8,14.7c0.1,0.6-0.3,0.9-0.8,0.9h-11.3
			c-0.6,0-0.8-0.3-0.9-0.8c-0.7-4-3.3-6.4-9-6.4c-4.6,0-7.4,1.7-7.4,5.8c0,9.1,31.3-0.2,31.3,20.2c0,10-9.5,15.7-22.5,15.7
			C708.1,337.1,699.2,331.5,698.8,320.9L698.8,320.9z"/>
		<path class="st0" d="M747.7,350.9l0.3-34.4l-0.3-27.6c0-0.6,0.3-0.8,0.9-0.8h12.3c0.6,0,0.9,0.3,0.8,0.9l-0.2,4.7
			c3.3-4.1,8.1-6.5,14.1-6.5c13.6,0,20.7,10.8,20.7,24.7s-8,25-21,25c-5.8,0-10.4-2-13.6-5.9l0.2,19.9c0,0.6-0.3,0.9-0.8,0.9h-12.5
			C748,351.8,747.7,351.5,747.7,350.9L747.7,350.9z M782.2,312.6c0-10.6-3.6-16-10.4-16s-10.4,5.1-10.5,15.1
			c-0.1,10.1,3.5,15.8,10.2,15.8C778.5,327.5,782.2,322.4,782.2,312.6L782.2,312.6z"/>
		<path class="st0" d="M799.4,312.1c0-13.9,8-25,21-25c6,0,10.6,2.1,13.9,6l-0.2-4.2c0-0.6,0.3-0.9,0.8-0.9h12.4
			c0.6,0,0.8,0.3,0.8,0.8l-0.2,23.2l0.2,23c0,0.6-0.3,0.9-0.8,0.9h-12.3c-0.6,0-0.8-0.3-0.8-0.9l0.1-4.7c-3.3,4.1-8.1,6.5-14.1,6.5
			C806.6,336.9,799.4,326.1,799.4,312.1z M834.6,312.3c0.1-10.2-3.5-15.8-10.2-15.9c-7.1-0.2-10.7,5.1-10.7,15
			c0,10.8,3.7,16.3,10.4,16.2C830.9,327.6,834.5,322.5,834.6,312.3L834.6,312.3z"/>
		<path class="st0" d="M857,321.9l0.1-24h-5.3c-0.6,0-0.9-0.3-0.9-0.9v-8.1c0-0.5,0.3-0.8,0.9-0.8h5.3l-0.1-11.2
			c0-0.6,0.3-0.8,0.9-0.8h12.3c0.5,0,0.8,0.3,0.8,0.8l-0.1,11.2h10.7c0.5,0,0.8,0.3,0.8,0.8v8.1c0,0.6-0.3,0.9-0.8,0.9h-10.7
			l0.1,23.6c0,4.1,2,5.4,5.1,5.4c2.2,0,3.9-0.4,5.2-0.7c0.6-0.2,1,0.1,1,0.7v7.4c0,0.5-0.2,0.8-0.7,1c-2.7,0.9-5.8,1.6-8.8,1.6
			C864.8,336.9,857,332.8,857,321.9L857,321.9z"/>
		<path class="st0" d="M885.7,335.1l0.3-23l-0.3-23.2c0-0.6,0.3-0.8,0.9-0.8h12.5c0.5,0,0.8,0.3,0.8,0.8l-0.3,23.2l0.3,23
			c0,0.6-0.3,0.9-0.8,0.9h-12.5C886,335.9,885.7,335.7,885.7,335.1z M885.7,282.5v-10.8c0-0.5,0.3-0.8,0.9-0.8H899
			c0.5,0,0.8,0.3,0.8,0.8v10.8c0,0.6-0.3,0.9-0.8,0.9h-12.4C886,283.4,885.7,283.1,885.7,282.5z"/>
		<path class="st0" d="M903.5,312.1c0-13.9,8-25,21-25c6,0,10.6,2.1,13.9,6l-0.2-4.2c0-0.6,0.3-0.9,0.8-0.9h12.4
			c0.6,0,0.8,0.3,0.8,0.8l-0.2,23.2l0.2,23c0,0.6-0.3,0.9-0.8,0.9h-12.3c-0.6,0-0.8-0.3-0.8-0.9l0.1-4.7c-3.3,4.1-8.1,6.5-14.1,6.5
			C910.7,336.9,903.5,326.1,903.5,312.1z M938.7,312.3c0.1-10.2-3.5-15.8-10.2-15.9c-7.1-0.2-10.7,5.1-10.7,15
			c0,10.8,3.7,16.3,10.4,16.2C935,327.6,938.6,322.5,938.7,312.3L938.7,312.3z"/>
		<path class="st0" d="M957,335.1l0.4-31.7l-0.4-31.7c0-0.6,0.3-0.8,0.9-0.8H970c0.5,0,0.8,0.3,0.8,0.8l-0.4,31.7l0.4,31.7
			c0,0.6-0.3,0.9-0.8,0.9h-12.1C957.3,335.9,957,335.7,957,335.1z"/>
		<path class="st0" d="M530.8,378.1c0-20.7,12.7-34.2,32.3-34.2c14,0,25.3,5.7,29.1,23c0.1,0.6-0.2,1-0.8,1h-12.1
			c-0.5,0-0.8-0.3-0.9-0.7c-1.9-7.9-7-12.4-15.5-12.4c-11.3,0-17.5,8.7-17.5,23.2s6.3,22.9,17.4,22.9c9.1,0,14-4.9,15.8-13.8
			c0.1-0.5,0.5-0.8,0.9-0.8h12.4c0.6,0,0.9,0.4,0.7,1.1c-3.6,17.6-14.2,24.4-29.4,24.4C543.1,411.8,530.8,397.9,530.8,378.1
			L530.8,378.1z"/>
		<path class="st0" d="M594.7,386.5c0-13.9,8-25,21-25c6,0,10.6,2.1,13.9,6l-0.2-4.2c0-0.6,0.3-0.9,0.8-0.9h12.4
			c0.6,0,0.8,0.3,0.8,0.8l-0.2,23.2l0.2,23c0,0.6-0.3,0.9-0.8,0.9h-12.3c-0.6,0-0.8-0.3-0.8-0.9l0.1-4.7c-3.3,4.1-8.1,6.5-14.1,6.5
			C601.9,411.3,594.7,400.5,594.7,386.5z M629.9,386.7c0.1-10.2-3.5-15.8-10.2-15.9c-7.1-0.2-10.7,5.1-10.7,15
			c0,10.8,3.7,16.3,10.4,16.2C626.2,402,629.8,396.9,629.9,386.7L629.9,386.7z"/>
		<path class="st0" d="M647.7,409.5l0.3-23.1l-0.3-23.1c0-0.6,0.3-0.8,0.9-0.8h12.1c0.6,0,0.8,0.3,0.8,0.9l-0.3,7.2
			c3.7-5.7,10.1-8.5,17.1-8.5c0.7,0,1.5,0.1,2.2,0.2c0.5,0.1,0.7,0.5,0.7,0.9v8.6c0,0.6-0.3,0.9-0.9,0.8s-1.2-0.1-1.7-0.1
			c-9.9,0-17.1,5.5-17.1,16.5l0,20.4c0,0.6-0.3,0.9-0.8,0.9h-12.2C648,410.3,647.7,410.1,647.7,409.5z"/>
		<path class="st0" d="M697.5,405.2l0.2,4.2c0,0.6-0.3,0.9-0.8,0.9h-12.3c-0.6,0-0.9-0.3-0.9-0.9l0.3-31.7l-0.3-31.7
			c0-0.6,0.3-0.8,0.9-0.8h12.3c0.5,0,0.8,0.3,0.8,0.8l0,21.8c3.3-4,8-6.3,14-6.3c13.6,0,20.7,10.8,20.7,24.7s-8,25-21,25
			C705.4,411.3,700.8,409.1,697.5,405.2L697.5,405.2z M718.2,386.8c0-10.5-3.7-15.9-10.4-15.8c-6.8,0-10.4,5-10.5,14.9
			c-0.1,10.2,3.5,15.8,10.2,15.9C714.6,402,718.2,396.5,718.2,386.8L718.2,386.8z"/>
		<path class="st0" d="M735.4,386.5c0-15.2,9-25.3,24.6-25.3s24.5,9.8,24.5,25s-8.8,25.3-24.5,25.3S735.4,401.8,735.4,386.5z
			 M770.2,386.5c0-10.8-3.3-16-10.2-16c-7.1,0.1-10.3,5.3-10.3,16.1s3.4,15.6,10.4,15.6S770.2,397.5,770.2,386.5L770.2,386.5z"/>
		<path class="st0" d="M787.8,409.5l0.3-22.1l-0.1-24.1c0-0.5,0.3-0.8,0.9-0.8h11.7c0.6,0,0.8,0.3,0.8,0.9l-0.2,5.2
			c3.2-4.2,8.7-7.2,15.4-7.2c10.1,0,16.7,6.9,16.7,18.6v10l0.2,19.5c0,0.6-0.3,0.9-0.8,0.9h-12.4c-0.6,0-0.9-0.3-0.9-0.9l0.2-19.5
			v-9.9c0-5.2-3.1-8.6-7.3-8.6c-5,0-10.4,4.6-10.4,14.9v3.5l0.2,19.5c0,0.6-0.3,0.9-0.8,0.9h-12.6
			C788.2,410.3,787.9,410,787.8,409.5L787.8,409.5z"/>
		<path class="st0" d="M853.2,409.5l0.3-31.7l-0.3-31.7c0-0.6,0.3-0.8,0.8-0.8h26.4c16.3,0,25.7,6.9,25.7,20.5
			c0,9.6-5.2,16.2-14.5,19l16,24.6c0.4,0.6,0.2,1-0.5,1h-14.5c-0.4,0-0.8-0.2-1.1-0.6l-8.4-13.9l-6.4-9.7h-9.3l0.2,23.3
			c0,0.6-0.3,0.9-0.8,0.9H854C853.5,410.3,853.2,410.1,853.2,409.5L853.2,409.5z M881.3,375.8c6,0,11.1-2.8,11.1-9.9
			s-4.2-10.4-11.4-10.4h-13.5l-0.2,20.3L881.3,375.8L881.3,375.8z"/>
		<path class="st0" d="M906.1,386.5c0-15.2,9.1-25.3,24.4-25.3s24.4,10.4,24.7,27.1c0,0.6-0.3,0.9-0.9,0.9h-34.2
			c0.6,9.1,4.1,13,10.8,13c4.7,0,8-2,9.3-6.9c0.1-0.5,0.4-0.7,0.9-0.7h11.7c0.6,0,0.9,0.2,0.8,0.6c-1.1,8.7-9.4,16.4-23,16.4
			C914.7,411.6,906.1,401,906.1,386.5L906.1,386.5z M940.1,380.4c-0.6-5.1-3.4-10-9.6-10c-5.6,0-8.9,3.4-10.1,10H940.1L940.1,380.4z
			"/>
		<path class="st0" d="M960,413.8c0-0.6,0.3-0.9,0.8-0.9h12.1c0.5,0,0.8,0.2,0.9,0.7c0.7,3.9,3.8,6.1,9.4,6.1
			c6,0,10.2-3.4,10.2-10.9v-5.5c-3.2,4.2-7.8,6.7-13.8,6.7c-14.2,0-21.7-10.5-21.7-24s8-24.3,21-24.3c6,0,10.6,2,13.9,5.9l-0.2-4.3
			c0-0.6,0.3-0.9,0.8-0.9h12.2c0.6,0,0.9,0.3,0.9,0.8l-0.2,23.8l0.1,22c0,12.1-7.9,19.9-23.7,19.9C970.2,429.1,961,424.1,960,413.8
			L960,413.8z M993.2,386.4c0.1-10-3.5-15.4-10.2-15.5c-7.1-0.2-10.7,5-10.7,14.6c0,10.3,3.7,15.5,10.4,15.4
			C989.5,401,993.1,396.1,993.2,386.4L993.2,386.4z"/>
		<path class="st0" d="M1011.3,409.5l0.3-23l-0.3-23.2c0-0.6,0.3-0.8,0.9-0.8h12.5c0.5,0,0.8,0.3,0.8,0.8l-0.3,23.2l0.3,23
			c0,0.6-0.3,0.9-0.8,0.9h-12.5C1011.6,410.3,1011.3,410.1,1011.3,409.5z M1011.3,356.9v-10.8c0-0.5,0.3-0.8,0.9-0.8h12.4
			c0.5,0,0.8,0.3,0.8,0.8v10.8c0,0.6-0.3,0.9-0.8,0.9h-12.4C1011.6,357.8,1011.3,357.5,1011.3,356.9z"/>
		<path class="st0" d="M1029,395.3c0-0.5,0.3-0.8,0.8-0.8h11.9c0.6,0,0.9,0.3,0.9,0.8c0.3,5.2,3.9,7.5,10.4,7.5
			c5.5,0,8.5-2.1,8.5-5.9c0-9.1-31.3-0.3-31.3-20.4c0-10,8-15.2,20.9-15.2s21,4.9,21.8,14.7c0.1,0.6-0.3,0.9-0.8,0.9h-11.3
			c-0.6,0-0.8-0.3-0.9-0.8c-0.7-4-3.3-6.4-9-6.4c-4.6,0-7.4,1.7-7.4,5.8c0,9.1,31.3-0.2,31.3,20.2c0,10-9.5,15.7-22.5,15.7
			C1038.4,411.5,1029.5,405.9,1029,395.3L1029,395.3z"/>
		<path class="st0" d="M1080.8,396.3l0.1-24h-5.3c-0.6,0-0.9-0.3-0.9-0.9v-8.1c0-0.5,0.3-0.8,0.9-0.8h5.3l-0.1-11.2
			c0-0.6,0.3-0.8,0.9-0.8h12.3c0.5,0,0.8,0.3,0.8,0.8l-0.1,11.2h10.7c0.5,0,0.8,0.3,0.8,0.8v8.1c0,0.6-0.3,0.9-0.8,0.9h-10.7
			l0.1,23.6c0,4.1,2.1,5.4,5.1,5.4c2.2,0,3.9-0.4,5.2-0.7c0.6-0.2,1,0.1,1,0.7v7.4c0,0.5-0.2,0.8-0.7,1c-2.7,0.9-5.8,1.6-8.8,1.6
			C1088.5,411.3,1080.8,407.2,1080.8,396.3L1080.8,396.3z"/>
		<path class="st0" d="M1109.1,409.5l0.3-23.1l-0.3-23.1c0-0.6,0.3-0.8,0.9-0.8h12.1c0.6,0,0.8,0.3,0.8,0.9l-0.3,7.2
			c3.7-5.7,10.1-8.5,17.1-8.5c0.7,0,1.5,0.1,2.2,0.2c0.5,0.1,0.7,0.5,0.7,0.9v8.6c0,0.6-0.3,0.9-0.9,0.8s-1.2-0.1-1.7-0.1
			c-9.9,0-17.1,5.5-17.1,16.5l0.1,20.4c0,0.6-0.3,0.9-0.8,0.9H1110C1109.4,410.3,1109.1,410.1,1109.1,409.5L1109.1,409.5z"/>
		<path class="st0" d="M1158,425.2l5-14.4l-19.2-47.3c-0.2-0.6,0.1-1,0.7-1h13.9c0.5,0,0.8,0.2,1,0.7l6.6,19l3.8,11l3.2-11l5.5-19
			c0.1-0.5,0.5-0.7,0.9-0.7h12.4c0.6,0,0.9,0.3,0.7,1l-21.3,62c-0.2,0.5-0.5,0.7-1,0.7h-11.5C1158.1,426.2,1157.8,425.8,1158,425.2
			L1158,425.2z"/>
	</g>
	<g>
		<path class="st0" d="M312.3,413.5c-1-0.8-1.7-1.9-2.1-3.1c0,0,0-0.1,0-0.1c-0.7-1-1.1-2.2-1.2-3.5c0-0.8,0.1-1.5,0.4-2.2
			c0.1-0.5,0.3-1.1,0.5-1.6c0.1-0.8,0.3-1.6,0.8-2.3c0.7-3.4,2.7-6.5,5.5-8.9c-0.9-0.2-1.8-0.6-2.5-1.1c-2.9,0.6-10,1.6-11.2,1.5
			c-3.1-0.2-4.3-1.2-6.1-3.4c-2.1-2.6-2.9-6.2-1.6-9.4c0.7-1.8,2.5-0.1,2.5-4.2c0-3.1-1.5-4.9,0.5-8.1c1.7-2.6,1.1,0.3,2.2-4.6
			c0.9-4.3,2.7-8.7,5-12.7c1.8-0.9,1.3,2.2,2.8,2.6c1.9,0.6,6-1.7,8.5-0.8c-0.8,2.2-3.1,3.8-2.7,6.3c0.7-0.4,2.6-0.5,4.3-0.4
			c0.5-0.3,1.1-0.6,1.7-0.7c0.7-0.8,1.6-1.5,2.6-1.9c-0.1-0.6-0.1-1.2-0.1-1.9c-0.1-0.1-0.1-0.2-0.2-0.3c0,0,0,0,0-0.1
			c0,0-0.1-0.1-0.1-0.1c-0.3-0.3-0.6-0.7-1-1c-1.5-1.4-3-2.6-4.3-4.1c-1.4-1.7-2.1-3.6-1.5-5.8c0.5-1.8,1.9-3.4,3.6-4
			c0.6-0.4,1.2-0.6,1.9-0.8c0-0.1,0.1-0.2,0.1-0.4c0-0.1,0.1-0.4,0.1-0.7c-0.4-0.7-0.6-1.5-0.7-2.4c-0.9-1.2-1.7-2.4-2.2-3.8
			c-0.4-0.9-0.4-1,0-0.1c-0.2-0.5-0.4-1-0.6-1.4c-0.1-0.3-0.3-0.6-0.4-1c-0.2-0.6-0.4-1.2-0.5-1.8c-0.4-1.4-0.6-2.9-0.6-4.4
			c0-0.5,0-1.1,0.1-1.6c-0.1-0.3-0.1-0.6-0.1-0.9c0-0.8,0.1-1.6,0.4-2.3c0-1.2,0.4-2.4,1.1-3.3c-1.8-1.5-2.7-5.4-7.9-3
			c-1.1-8.5-6-7.6-12.7-4.5l0.9,1.8c-7.9-1.1-6.7,6.6-7.3,7.2c-0.3,0.3-4.2-0.1-4.9,1.9c-1.1-3.8-2-0.6-3.8-0.3
			c-5.9,1.1-13.4-0.8-19,1c-3.1,1-2.4,2.7-4.9,2.9c-0.5-2.4,0.5-2.5-2.7-4.1c4.3-2.3,2-8.1,0-11.3c2.8,0.3,4.1-2,6.4-3.2
			c0.8-0.4,2.6-0.3,2.7-0.4c0.3-0.3-1.4-3.6-0.8-5.7c0.5-1.6,3-2.7,3.5-3.9c0.1-0.2-1.7-3-1.8-3.1c2.4-1.2,5.7-3.7,5.5-6.7
			c-0.2-2.7-2.7-3.4-3.4-4.4c-1.1-1.6,1.2-2.9-2.1-3.4c2.1-4.3-0.4-4.4-1.6-7c-1.5-3.1,0.3-5.2,0.7-8.4c-1.8-0.4-4,0.8-5.5,0.4
			c-1.2-0.2-3.1-2.5-3.5-2.2c-0.1,0.1,0.3,1.6-0.6,1.8c-1.4,0.3-2.9-0.4-4.6,0.2c-0.3,0.1-5.2,4.1-5.5,4.4c-0.2,0.2,0.8,1.6-0.1,2.1
			c-1.4,0.8-8,1.3-2.8,3.6c-4.5,0.6-1.9,6.5,0,6.8c-3.8,5-3.9,8.3-2.7,14.5c1.6,8.2,2.3,5.5,9.5,7.2c1,0.2-1,2.6-0.4,3.6
			c-4.8,0.2-11.4,2.1-16.3,2.7c0.4-6.2-7.7-2.7-11-0.9c-1.1,0.6-1.3,2.1-2.8,2.9c-1.9,1-5.1,0.9-7,2.5c-0.1-0.3-3.8-5.4-4.1-5.4
			c-0.9-0.2-8.3,4.6-9.9,5.4l-0.4-3.6c1,0.1,2.8,1.2,3.5,0.8c0.2-0.1,2.3-3.3,2.3-3.5c0.1-0.4,0.3-3.2,0.5-4.6
			c-0.5,2.6,1.4,2,3.1,1.7c7.2-1,3.4-3.8,5.6-5.3c2.6-1.8,3.6,0,5.3-0.1c0.5,0,0.5-1.2,0.9-1.4c0.7-0.4,1.9-0.3,2.1-0.5
			c0.3-0.4,2-8.3,2.1-9.3c0.1-2.3-0.7-0.9-1.8-0.4c-2.6-4.9,6.8-13.9,10-17.5c0.4-0.5,1.1-0.8,1.8-0.7c-0.9-2-4.7-0.8-5.4-3.6
			c5.2,1.8,8.3,3.1,13.9,1.8c5.5-1.3,9.5-4.8,14-7.1c1.3-0.7,3.3-0.6,4.7-1.5c2-1.3,9.6-19.1,9.9-21.9c0.4-5.4-5.7-4.8-6.7-6.5
			c-0.9-1.6,0-3.6-0.7-5.2c-0.2-0.4-4-2.9-4.1-3.1c-0.2-0.5,0.8-1.5,0.8-2c0-0.7-1.8-0.4-1.9-1.1c-0.1-1.1,1-2.2,0.5-3.9
			c-0.6-2-5.1-4.7-5.7-7c-0.5-2.1,1-3.9,0.8-5.9c-0.1-1.2-5.5-3.5-5.9-4.2c-0.9-1.4-0.1-3.3-0.4-4.5l0,0c0.9-1.4,1-3.4,1.8-4.8
			c0.5-0.8,5.3-2-1.8-3.3c-0.4-1.5,3.9-3.2,2.7-4.5c-2.6-2.8-14.9-2.3-18.8-1.1c-0.4,0.1-6.4,3.9-6.6,4.2c-1.1,1.1-1.5,3.8-1.9,4
			c-1.1,0.7-4.4-0.4-6.6,1.1c-1.7,1.2-2,4.6-3.7,6.2c-2.1,1.9-6.6,3.4-7.4,7c-0.1,0.7,0.7,2,0.6,2.1c-0.2,0.1-2.1,0.1-3.2,0.9
			c-1.6,1.2-2.1,4.6-4,6c-0.2,2,0.3,1.4,1.5,0.7c2.3-1.4,3.2-6,6.6-4.3c-0.2,3.3-2.2,3.8-3,5c-0.3,0.5,0.2,1.4,0,1.6
			c-1,1-3.4,1.3-4.3,2.7c-1,1.5-0.1,4.9-1.5,7.3c-0.9,1.6-4.8,1.6-0.3,3.4c-3.4,0.8-3.2,6.7-5,8.7c-0.6,0.6-3.3,0-5.4,1.9
			c-1.9,1.8-3.2,6.1-5.4,7.7c-1.1,0.8-2.8,0.6-3.6,1.4c-4.3,3.6-7.8,8.1-7.7,14c0.1,3.1,1.7,6.7,1.6,9c-0.1,1.5-1.4,2.7-1.4,3.6
			c0.1,3.8,7.4,11.6,11.8,11.3c3.4-0.2,6.8-6.4,11.4-7.8c1.1-0.3,1.7,0.6,1.8,0.5l0,0c1.2,3.3,2.3,8,3.9,11.1c1,1.9,4.3,4.6,4.3,4.9
			c0.3,1.9-0.9,3.3-0.9,3.9c-1.6-0.4-1.8,1.6-2.5,1.8c-6.1,1.5-2.8-1.6-3.1-3.1c-0.3-1.2-3.5-1.1-3-4.2c0.6-3.8,4.5,0.3,4.1-3.5
			c-5,3.1-1-3.5-4.1-2.7c-2.8,0.8-3.7,4-4.3,4.3c-1.4,0.8-4.4-0.6-5.7,2c-0.5,1.1-0.9,8.6-0.9,10.4c0,0.8,1.4,1.9,1.4,4.1
			c0,0.1-1,0.9-0.9,2.2c0.1,1.6,2.2,3.5,1.6,4.9c-1.1,2.8-7.8,1.4-9.8,3.8c-9.9-1.5-8.1,3.2-11,8.5c-0.3,0.6-5.7,6.6-6.2,6.9
			c-0.3,0.2-3.3,1.7-3.6,1.8c-1.1,0.3-5.5-0.1-6.2,1c-0.7,1.1,0.6,4-0.9,5.9c-1.3,1.5-4.3,1.2-5.9,2.2c-1.1,0.7-1.3,2.4-1.6,2.5
			c-0.2,0.1-5-0.8-5.1-1c-0.4-0.5,0.4-2.1-0.7-2.5c-3.6-1.6-4.5,0.8-4.8,0.9c-0.9,0.3-2.5-0.2-3.6,0v0.9c2.8-0.4,1.7,2.5,1.8,4.5
			c-0.7,0.1-1.7,1.2-2.7,0.9c-0.3-0.4,0.6-2.6-0.5-2.8c-3.6-0.6-8.5,1-12.2,1c-0.3,2.4-0.1,2.4,1.8,3.2c-6.2,2.2,5,4.5,5.9,5.8
			c0.5,0.7-0.9,2.5-0.5,2.8l4.5-0.9c1.2,1.6-0.2,7,0,7.2c0.2,0.2,2.2-0.2,3.2,0.9c4.1,4.7,0.5,18-3.2,22.7c-0.6-0.2-2.1,0.3-3.1-0.1
			c-8.5-2.9-18.9-3.3-27.5-6.9c-1.1-0.5-1.1-1.9-1.8-2.1c-3.9-0.9-6.9,2.7-11,1.9c-1.5,2.5,0.1,4.9-0.1,7.6c-0.1,1.4-0.9,2.5-1,3.2
			c-0.4,4.7-0.8,12.5-4.8,16c-1,0.9-2.8,0.8-3.3,1.3c-0.3,0.3-0.8,7.3-0.2,8.4c0.7,1.3,2.8,0.1,2.7,1c-0.4,3.5-2.8,7.1-3.6,10.4
			c2.8-1.2,5.5,1.3,7,1.5c1.3,0.2,2.6-0.7,3.9-0.6c5.5,0.3,4,4.1,5.6,7.5c3.3,6.8,8.1,0,13.9-0.1c2.5,0,12.4,2.5,13.7,2
			c2-0.7,2.4-4.2,3.2-4.7c1.4-0.8,4.5,0.5,6.2-0.6c1.2-0.8,1-3.7,2-4.8c0.9-1,5-1.8,5.2-2.1c0.9-1.2-1.7-4.2-2.1-5.6
			c-1-3.4,5.4-7.3,7.5-9.4c0.9-0.9,0.7-2.5,1.1-2.9c1.9-1.7,13.7-0.3,14.9-7.5c0.2-1.5-0.6-1.7-0.6-1.8c-0.1-1.7-1.2-3.5,0.5-5.4
			c5.4-6.2,13,3.2,18.1,2.7c1.2-0.1,5.1-4.4,6.8-5.5c0.9-0.6,3.1-0.4,4.5-1.4c2.7-2,1-5,5.8-3c3.8,1.5,7.5,4.8,6.9,9.3
			c0,0.3-3.7,2.1-2.8,4.2c2.4,1,3.8-2.8,4.1-2.7c2.8,1.1,0.9,5.1,2.7,5.3c0.6,0.1,1.9-1.3,3-0.7c1.2,0.7,4.8,5.8,7.9,7.2
			c1.6,0.8,5.4,0.4,5.8,0.9c0.4,0.5-0.2,2,0.1,2.8c2.2,4.9,6.1,0.4,6.3,0.8c-1.3,5.7,3.2,3.3,5.2,4.7c1,0.7,2.6,7,3.8,8.4
			c-3.7-0.2-2.3,2.6-2.8,3c-2,1.9-5-3.4-7.1-1.7c-1.9,1.5,3.4,1.9,1.8,3.6c-0.2,0.3-6.3,1.7-6.9,1.7c-0.3,0,0.1-2.4-4.5-1.8
			c-2.4,0.3-4.1,2.3-6.8,1.9l3.8,3.9c3.6,1.5,7.5,2.3,10.9,3.4c0.9,0.3,3.3,4.4,7,2.6c1.2-2.1-1.3-8.5,0.1-9.9
			c0.9-0.9,4.2,2.4,7.6-3.8c0.6-1.1,0.2-2.8,0.7-3.3c0.7-0.8,6-0.2,2-5.5c-1.8-2.4-4.1-0.9-2.2-6.4c2.7-0.8,11.9,7.5,10.7,0.6
			c-0.7-3.9-13.2-8.6-17-8.8c-0.4-1.5,1.7-0.5,1.8-1.3c0.8-4.8-4.1-1.9-6.6-2.4c-6.2-1.2-7.1-7.9-9.7-11.2c-1.4-1.7-4.7-2.6-6.4-4.5
			c-3.9-4.4,0-4.2,0.1-4.5c0.3-2-2.1-3.7-1.9-4c0.2-0.3,5.3-2.6,6.3-2.7c-0.1,0.1,0.1,0.7,0,0.9c-2.3,3.7,3.1,5.6,4.2,6.7
			c1.5,1.5,4,4.9,5.6,6c3.6,2.4,8.2,1.4,5.6,6.4c4.2-2.1,3.4,0.7,4.2,0.9c2.3,0.6,5.9-0.4,8.4,0c0.7,0.6,1.5,0.7,1.8,0.9
			c1.9,1.5,4.3,4,6.3,4.5c0.1,1.9,0.6,4,0.7,5.9c0.2,3.6-2.7,4.4,2,7.7l0,0l0,0c-2.4,3,0.8,3.2,2.9,4.6c0.5,0.3,0.7,1.5,0.9,1.6
			c0.7,0.3,1.8-0.7,2.5-0.3c2.2,1.3-1.9,6.8,2.3,10.4c2.5,2.2,3.2-1.4,4-0.9c0.1,0-0.2,0.9,0.4,1.4c3.6,3.4,0.8,2.5,1.7,4.7
			c0.2,0.6,2.9,2.4,3.9,2.1c1.5-0.5-1.2-4.3,4.1,1.8l0.5-3.6c4.1,10.5,5,2.6,2.3-3.6c3.9,0.7,2.7-1.3,2.7-4.5
			c1.8-0.3-0.1,2.5,2.2,1.8c1-0.3,0-2.2,0.9-1.8c2,1.4,0.3,4.9,3.2,4.5c0.3,1.7-1.9,0.5-2.7,0.9c-0.2,0.1,0.8,2.6,0,3.6
			c0.8,0.8,3.6-2.1,4.5-2.7c-0.1-0.4,0.1-1.2,0-1.8h2.7c-0.1,1.7-2.1,1.4-2.7,1.8c0.9,2.1,3.3-0.4,3.6,0c0.6,0.8-2.6,4,0.5,3.6
			c2.3-1.6,0.8-3.3,0.5-5.4c1-0.2,2.8,0.3,3.6,0c-0.8,2.7,3.8,2,5.4,2.7c-0.9-2.3-3-3.1-5.4-2.7c0.2-0.1,0.5-1.4,0.9-1.8l-1.8-2.7
			c-3.5,2-2.2-0.2-3.4-0.9c-1.9-1.1-7.3-3.1-8.2-3.9c-2-1.8-1.6-4.3,1.6-3.4c-1.7-6.6-3.1,1.7-7.2,0c-0.7-3.3,2.5-0.8,3.7-2.3
			c0.9-1.1,1.1-3.3-0.5-4c-2-0.8-0.9,3.1-4.5,2.8c-1.7-0.2-7.3-5.2-5.5-7.3c1.9,0.4,2.7,2.9,3.4,3.4c1,0.8,7.1-2,7.1-3
			c-0.1-2.7-2.8-2.5-3.6-3.2c-0.7-0.6,2.1-1.2,1.9-2.4l0.8,2.4c4.1,1.1,2.1-2.2,3.5-3.2c1.3-0.9,3.9-0.3,5.5-0.4
			c-2,0.7-2.4,1.3-0.9,1.7c-1.4,0.1-3.2,1.4-2.7,2c0.2,0.2,1.6-0.2,1.8,0c-2.2,0.9-2.4,1.4,0,1.8c1,1.8,2.2,3.3,3.6,4.5
			c0,0.1-1.6,1.8-0.9,2.7c0.5,0.6,5.4,1.4,6.3,0c-0.3,0.9-1.3,1.5-2.9,1.6l0.1,1.1c-0.9,0.2-5.6-0.9-4.5,1.4c0.5,1,3.8-0.6,2.7,3.2
			c1.1,0.4,1.7-0.9,1.8-0.9c0.7,2.2,2.8,1.6,4.5,0.9c-1.2,1.7-4.5,1.7-4.5,4.1c2.5,0,3.1,1.3,4.5,2.3c0.2,0.1,1.2-0.3,1.6,0.2
			c1.7,2.2-1.3,1.3,3.4,4.4c0.5,0.4,1,0.8,1.5,1.1c0.3-0.3,0.6-0.6,0.9-0.9c0.3-0.4,0.7-0.7,1-1.1c0,0,0.4-0.5,0.5-0.7
			c0.5-0.8,1-1.6,1.5-2.4c1-3.2,3.1-5.8,5.6-8.1c0.5-0.7,1.1-1.4,1.6-2c0.6-0.7,1.1-1.4,1.7-2.1
			C313.8,414.8,312.9,414.2,312.3,413.5L312.3,413.5z M230.8,230.6c1.9-1.6,3.3-3.4,3.5-6.3c3.4-1.9,3-4,2.2-7.6
			c0.6-0.2,1.6-1.2,1.8-0.9c0.2,2.3,1.2,5.4-0.1,7.5c-0.7,1.1-2.1,1.3-2.3,1.8c-0.5,0.9-0.1,2.2-0.3,2.6c-1.9,2.9-2.7,4.5-6.2,5.3
			C229.9,232.3,230.4,231.5,230.8,230.6L230.8,230.6z M223.4,236.6c1.6-1.8,4.2-1.2,2.3-3.6c0.9-0.1,1.9,0.1,2.7,0
			c-3.1,1.6-3,4.7,0.1,6.9c3.3,7.4,4.4,13.4-3.8,17.4l1,1.9c-2.8-4.7-7-0.8-7.2-7.7C218.3,246.3,219.9,240.6,223.4,236.6
			L223.4,236.6z M193.9,304.8c0-0.1,0-0.2,0-0.3C194,304.6,193.9,304.8,193.9,304.8z M288.2,426.9c0.9,0.4-4,3.2-4.5,2.7
			C282,427.9,286.5,426.6,288.2,426.9z M285.5,404.2l0.9-1.8C286.9,403,286.6,403.6,285.5,404.2z"/>
		<polygon class="st0" points="221.1,192.2 221.1,192.2 221.1,192.2 		"/>
		<polygon class="st0" points="256.5,404.2 256.5,404.2 256.5,404.2 		"/>
		<path class="st0" d="M114.1,275.8c-0.3,1.3-2,1.7-1.6,3.4c2.9,1,3.7-4.6,4.1-4.5c2.1,0.7,0.2,3,0.4,4c0.2,1.1,2.3-0.1,1.9,1.5
			c-9.3,2.1-2.2,2.5-1.9,2.8c2,2.2-1.7,3.9-1.7,4.1c0,0.9,1.3,2,0.5,3.1c-0.6,0.9-1.8,0.6-2.3,0.9c-0.4-1.7-4.8-2.6-5.9-2.6
			c-0.4,0-5.6,5.7-4,7.1l-7.2-1.8c-0.8,1.1-0.1,3.6-0.2,4.1c-0.2,0.7-1.7,0.1-1.7,1.8c0,1.7,2.3,6.4,1.9,6.8
			c-0.2,0.2-5.1,1.5-5.9,2.7c-0.8,1.2-0.8,5.3,0.2,6.5c4.1,4.7,11.4-0.8,15.3-0.9c1.4-0.1,4.2,1.3,4.8,0.8c1.3-1,4.4-12.6,3.7-14.4
			c7.9-1.4,3.1-5.2,2.7-9.5c-0.2-1.9-0.4-2.7,1.8-2.3c-1.3,2.5-0.9,3.8,1.8,2.7c-3.6,8.3,5.7,4.9,6.3,5.4c0.2,0.1-0.9,1.7-0.8,2.9
			c0.3,1.8,2,3.5,1.5,5.5c-1,4.3-6-0.1-8.9,0.6l1.8,3.6l-2.7,1.8h3.6c-0.8,1.5-0.7,3.6-2.4,4.4c-1.6,0.7-10.6,0.7-3.3,4.5
			c2.2,1.1,6.3,0.1,5.7,2.9c-1.2-0.5-4.3,1-4.5,0.8c-0.4-0.3,0.6-2.1-1-1.7c1.4,6.1-6.3,4.6-7.2,9c4.6,2.1,4.5-0.8,5.1-0.9
			c3.1-0.8,5.2,2,6.2,1.8c1.2-0.3,1.5-3.7,3.7-3.7c1.1,0,2.1,1.5,3,1.7c3,0.6,13.1,0.9,15.9,0.1c2.4-0.6,4.4-2,5.1-4.5
			c-7,0.6,2.7-5.5,2.7-8.6c0-3.9-5.5-3.6-6.2-4.2c-0.5-0.4-1.6-8.1-2.4-9.8c-1-2.3-3.1-3.3-3.6-4.5c-0.9-2.1-0.1-4.4-0.7-6.6
			c-0.4-1.7-2.9-3.4-3.3-5c-1-4.1,14.2-12-2.8-12.9c3.4-3.4,7-6.8,8.1-11.8c-6.1-0.9-5.5,4-7.2,5c-1,0.6-4.1-1.6-5.5-0.9
			c-2,0.9-2,5.3-4.9,5.9l1.4-6.3c-5.7,0.5-5.2,1.5-7.6,5.1c-0.3,0.5-1.7,0.7-1.9,1.1C113.4,273.6,114.3,274.9,114.1,275.8
			L114.1,275.8z"/>
		<path class="st0" d="M78.1,209.4c0.6,0.9,9.8,1,4.5,6.4c3.8-1.8,4.4,1.4,6.8,1.8c2.4,0.4,13.3-0.8,15.8-1.3
			c0.8-0.2,4.8-2.3,5.4-2.8c4.8-4.4-1.8-9.2,1.9-13.1c-3.4,0.8-3.1-3.6-5.9-2.8c-0.3,0.1-1,4.8-2.7,0c-3.2,3.6-1.5,0.5-3.4-0.3
			c-2-0.8-3.3,0.5-4.6,0.4c-0.7-0.1-0.2-2.6-2.8-1.9c-0.6,0.1,0,2.8-2.2,1.8c1.2-2.9-0.8-5.2-0.9-8.1c-1.7-1.4-10.8,4.1-10.8,4.9
			c0,0.6,9,5.5-0.9,4.1c-1.1,4,2.2,2.1,3.2,3.6c0.8,1.1,0.3,3.2,0.4,4.6C79.4,206.2,76.4,206.8,78.1,209.4L78.1,209.4z"/>
		<path class="st0" d="M185.8,406c1.3-3.9,2.2-7.1,1.8-11.3c-0.5-5.6-1.9-0.6-2.4-0.4c-2,1.1-4.3,0-4.6,3.3
			c-0.3,3.2,1.4,6.1,3.4,8.4c-0.3,0.2-1.2,2.3-2.3,2.7c-1.7,0.7-1.3-3.6-3.1-1.8c-0.1,0.1-0.9,3.7-0.9,4.2c-0.1,1.7,1.6,0.7,1.9,2.5
			c0.6,4.5-3.1,11.4,3.1,11.5c1.5,0,1-1.4,2-1.9c2.7-1.4,2.4,2,3.7-4.2C189,415.9,190.4,406,185.8,406L185.8,406z"/>
		<path class="st0" d="M296,440.2l-1.9,1l-14.8-0.6l-1.9,1.2l1.3,3.2c4.6-0.2,12,1.8,15.9-0.4C294.9,443.1,295.4,441.6,296,440.2
			L296,440.2z"/>
		<path class="st0" d="M142.9,415.2c-3.8,2.6,1.6,3.2,2.6,6.2c1.7-1.9,4.6-3.3,4.1-6.3C147.1,414.3,145.2,413.6,142.9,415.2
			L142.9,415.2z"/>
		<path class="st0" d="M224.8,285.5c4.5-2,3.7-6.2,5.4-10C224.2,275.9,223.1,280.3,224.8,285.5z"/>
		<path class="st0" d="M143.2,258.3c-0.2,2.6-0.1,5.5,2,2.4c1.6-2.3,3-5,2.5-7.9C146.5,251.5,135.8,261.7,143.2,258.3L143.2,258.3z"
			/>
		<path class="st0" d="M125.1,240.8c0.3,1.5-0.2,3.3,0,4.8c3,0.6,1.4-2.9,2.7-4.8c0.5-0.8,1.8-0.5,1.8-0.6c1.7-2.6-4.6-3.2-6.3-1.8
			C122.4,240.6,125,240,125.1,240.8L125.1,240.8z"/>
		<path class="st0" d="M135.1,424.1c2.3,1,2.9-4.4,2.7-4.5C135.9,417.9,133,421.6,135.1,424.1z"/>
		<path class="st0" d="M150.5,414.2c-0.9,2.3,4.4,2.9,4.5,2.7C156.7,415,153,412.1,150.5,414.2z"/>
		<path class="st0" d="M123.3,299.1c-0.8-0.8-4.2,1.9-3.6,3.6C122.4,303.1,123.7,301.9,123.3,299.1z"/>
		<path class="st0" d="M210.3,298.7c-1,2.9,1.3,2.4,3.6,2.2C214.8,300.1,211.4,295.6,210.3,298.7z"/>
		<path class="st0" d="M143.2,171.4c-0.5-0.5-6,2.4-4.5,3.6C139.1,175.3,145.1,174.2,143.2,171.4z"/>
		<path class="st0" d="M220.2,447.7c0.4-0.4-1.7-3.5-1.8-3.6C215.1,441.8,217.3,450.1,220.2,447.7z"/>
		<path class="st0" d="M280.9,406c-1.2,1.2,4,6,3.6,0C283.4,405.9,282.1,406,280.9,406z"/>
		<path class="st0" d="M333.9,276.9c0.1,7.5,3.6,14.3,6.5,21.1c1.3,3.2,2.6,6.4,3.2,9.8c0.6,3.1,1.1,7.3-2,9.3
			c-3.1,2-5.1-1.2-6.7-3.4c-1.6-2.4-3.6-4.5-6.7-4.5c-6.3-0.1-9.7,5.9-9.2,11.6c0.3,3.2,1.7,6.1,3.5,8.7c1,1.6,2.2,3,3.5,4.5
			c1,1.2,2.6,2.8,2.1,4.5c-0.5,1.9-2.6,0.9-3.9,0.8c-1.2-0.1-2.3,0.4-3,1.2c-1.7,2-1.4,4.9-0.1,6.9c1.8,2.7,5.5,4.4,5.9,7.9
			c0.4,3.4-4.1,3.5-6,5.2c-3.9,3.7-1,9.2,1,13c1.3,2.5,2.7,5,4,7.5c0.5-0.5,1.1-1.1,1.6-1.6c2.3-2.2,4.8-4.4,7.2-6.4
			c1.1-1.9,2.1-4.1,2.6-6.2c0.5-2.5,0.7-4.8,0.4-7.3c-0.3-2.7-0.9-5.4-2.5-7.7c-0.1-0.1,0.1-0.3,0.2-0.2c1.6,2.1,2.5,4.7,3.3,7.2
			c0.8,2.5,1.6,5.3,1.5,7.9c0,0.7-0.1,1.5-0.2,2.2c1.4-1.2,2.9-2.3,4.4-3.4c1.2-0.9,2.4-1.9,3.6-2.8c0.4-1.2,1-2.3,1.4-3.5
			c0.7-1.9,1.5-3.7,2.2-5.6c0.4-1,0.6-2,0.9-3.1c0-0.2,0-0.3,0-0.5c0-1.5-0.2-3-0.7-4.4c-1.1-3.1-2.9-6.1-4.5-8.9
			c0-0.1,0.1-0.2,0.1-0.1c2,2.9,4.4,5.7,6.1,8.9c0.1-0.7,0.2-1.3,0.2-2c0.6-6.8-1.4-13.9-5-19.6c-0.1-0.2,0.1-0.4,0.2-0.2
			c3,4.3,5.3,9,6.6,14.1c0.4-1.1,0.7-2.2,0.9-3.2c0.9-4,1.4-8.4,0.8-12.5c0-0.1,0.2-0.1,0.2,0c1,4.1,1.1,8.3,0.6,12.5
			c-0.3,2.6-0.7,5.3-1.6,7.9c0,0.3,0.1,0.5,0.1,0.8c0.5,3.8,0.1,7.5-1.1,11.1c-0.3,1-0.7,1.9-1.1,2.8c2-1.9,4-3.8,5.8-5.8
			c5-5.4,9.3-11.4,13.5-17.4c1.2-1.7,2.4-3.4,3.5-5.2c0.5-1.6,0.9-3.2,1.2-4.8c0.9-4.2,1.4-8.5,1.5-12.8c0.2-5.3-0.1-10.7-1-16
			c-0.4-1-0.9-2-1.5-2.9c-2-3-5-5.3-7.8-7.4c-0.1-0.1,0-0.3,0.2-0.2c3.1,2,6.3,4,8.5,7c-0.3-1.5-0.7-3-1.1-4.5
			c-1.3-4.4-3-8.6-5.4-12.5c-0.1-0.1,0.1-0.3,0.2-0.1c4.6,7.1,7.5,14.9,8.9,23.2c0.2,1.3,0.4,2.7,0.6,4.1c0.1-0.8,0.2-1.6,0.2-2.4
			c0.4-3.8,0.9-7.6,1.2-11.4c0.6-7.7,0.8-15.5-0.7-23.1c0-0.2,0.3-0.3,0.4-0.1c1.7,7.6,2.1,15.4,1.8,23.1c-0.1,3.9-0.3,7.8-0.7,11.6
			c-0.3,3.1-0.4,6.6-1.5,9.7c0.2,4.4,0,8.8-0.6,13.1c8.5-13.3,16.3-27,24.2-40.7c0.4-1.4,0.9-2.8,1.2-4.2c0.5-2.2,0.9-4.4,1.2-6.6
			c0.7-4.4,1.2-8.8,1.7-13.2c0.9-8.5,1.6-17.3-1-25.6c-0.1-0.3,0.3-0.5,0.4-0.2c2.2,6.3,2.6,13.1,2.5,19.7c0,0.5,0,1,0,1.5
			c0.2-0.7,0.5-1.5,0.7-2.2c1.4-4.4,3.4-8.4,5.5-12.5c0.1-0.2,0.4-0.1,0.3,0.1c-1.9,4.1-3.2,8.4-4.4,12.7c-0.9,3.2-1.6,6.4-2.4,9.6
			c0,0.5,0,1-0.1,1.6c-0.2,3.7-0.4,7.3-1.2,10.9c-0.1,0.6-0.3,1.2-0.4,1.8c3.1-5.3,6.2-10.5,9.5-15.7c2.4-3.8,4.8-7.6,7.3-11.3
			c0.3-0.6,0.7-1.1,1.1-1.6c3.3-4.9,6.7-9.6,10.3-14.3c1.9-3.3,3.6-6.9,3.8-10.8c0-0.2,0.3-0.2,0.3,0c-0.1,2.5-0.5,5.1-1.4,7.4
			c2.5-3.1,5-6.1,7.6-9.1c0.1-0.1,0.3,0,0.2,0.1c-5.9,7-11.3,14.3-16.4,21.9c1.9-1.7,4.1-3.2,6.3-4.6c5.3-3.4,11.2-5.3,17.1-7.4
			c0.2-0.1,0.4,0.3,0.2,0.4c-4.4,1.7-9,3.6-13.2,5.9c2.1-0.1,4.3,0.1,6.4,0.1c0.1,0,0.1,0.2,0,0.2c-1.1,0.1-2.1,0.2-3.2,0.3
			s-2.1,0.2-3.2,0.3c-0.9,0.1-1.8,0.3-2.6,0.7c-0.4,0.2-0.7,0.4-1.1,0.6c-2.4,1.6-4.5,3.5-6.5,5.4c-1.1,1.1-2.3,2.1-3.3,3.3
			c-0.3,0.3-0.6,0.7-0.9,1.1c-6,9.3-11.6,18.9-17,28.6c0.1-0.1,0.2-0.2,0.4-0.3c2.5-2.3,5.4-4,8.4-5.6c4.3-2.4,9-4.3,13.8-5.8
			c1.2-0.8,2.4-1.6,3.6-2.5c1-0.8,1.9-1.6,2.9-2.3c1-0.8,1.9-1.5,2.8-2.4c0.1-0.1,0.4,0.1,0.2,0.2c-0.9,0.9-1.7,2-2.6,2.9
			c-0.9,0.9-1.8,1.8-2.8,2.6c-0.2,0.2-0.4,0.3-0.6,0.5c0.5-0.1,1.1-0.3,1.6-0.4c3.8-0.9,7.7-1.5,11.6-1.9c0.2,0,0.3,0.4,0.1,0.4
			c-8.3,1.1-16.5,3.7-23.8,7.7c-0.3,0.1-0.5,0.3-0.8,0.4c0.1,0,0.2,0,0.2,0c4.1-0.2,8,0.8,11.9,1.6c0.2,0,0.1,0.4-0.1,0.4
			c-3.7-0.7-7.6-0.8-11.4-0.2c-1.7,0.2-3.4,0.5-5.1,1c-0.1,0-0.2,0-0.2,0.1c-1.7,1.1-3.4,2.3-5,3.5c-1.8,1.3-3.6,2.5-5.4,3.8
			c-1.1,0.8-2,1.6-2.8,2.6c-0.1,0.2-0.3,0.3-0.4,0.5c-2,3.5-4,7.1-5.9,10.7c-2.1,3.7-4.1,7.4-6.2,11c0.9-0.9,1.9-1.7,2.9-2.4
			c3.3-2.1,6.8-3.7,10.5-4.8c4-1.2,8.1-2,12.3-2.7c4.2-0.7,8.5-1.4,12.7-1.8c4.8-0.4,9.5,0,14.3,0.4c0.3,0,0.2,0.4,0,0.4
			c-4.2-0.2-8.5-0.3-12.6,0.2c-4,0.5-7.9,1.4-11.8,2.2c-3,0.6-6.1,1.3-9,2.1c0.9,0.1,1.8,0.2,2.7,0.4c4,0.8,7.8,2.1,11.8,3
			c0.2,0,0.1,0.4-0.1,0.3c-3.8-0.8-7.8-1.2-11.7-1.3c-1.9,0-3.8-0.1-5.7,0c-1.4,0-3,0.3-4.5,0.2c-1.9,0.8-3.7,1.7-5.5,2.7
			c-1.8,1.1-3.6,2.3-5.3,3.6c-1.7,1.3-2.9,3-4.5,4.3c0,0-0.1,0-0.1,0.1c-0.5,0.6-1,1.3-1.4,2c-0.3,0.4-0.5,0.8-0.8,1.2
			c-3.1,5.3-6.3,10.6-9.6,15.8c-0.1,0.3-0.2,0.5-0.3,0.8c0.1-0.1,0.2-0.1,0.4-0.2c3.2-1.5,6.8-2,10.3-2.2c0,0,0.1,0,0.2,0
			c1.5-0.3,2.9-0.7,4.3-1.2c3-1,5.9-2.2,8.8-3.4c3.2-1.3,6.1-3.1,8.9-5.1c2.7-1.9,5.3-4.1,7.6-6.5c0.1-0.1,0.4,0.1,0.3,0.2
			c-4.7,5.2-9.8,10.1-16,13.6c-1.5,0.9-3.2,1.6-4.9,2.3c6.9,0.2,13.8,1,20.6,2.3c0.2,0,0.2,0.4,0,0.3c-7.3-1.3-14.9-1.3-22.3-0.5
			c1.3,0.4,2.6,1,3.8,1.5c2,0.8,4,1.7,5.9,2.7c0.2,0.1,0.1,0.5-0.1,0.4c-1.8-0.9-3.7-1.5-5.7-2c-2-0.4-4-0.4-6-0.5
			c-1.9-0.1-3.8-0.3-5.8-0.2c-1,0-2,0-3,0c-1.5,0.4-3.1,0.9-4.5,1.5c-1.9,0.9-3.7,2.1-5.5,3.3c-1.1,0.8-2.1,1.7-3.1,2.5
			c-2.2,3.2-4.5,6.4-6.8,9.5c-2.1,2.8-4.4,5.4-6.7,7.9c2.4-0.7,4.8-1.1,7.1-1.3c1.4-0.1,2.8-0.1,4.2,0c0,0,0,0,0,0
			c1.1-0.7,2.3-1.2,3.5-1.7c2.4-0.9,5-1.4,7.5-2.1c0.2-0.1,0.3,0.3,0.1,0.4c-2.4,0.8-4.7,1.7-7,2.8c-0.5,0.3-1.1,0.6-1.6,0.9
			c4.9,0.6,9.7,2.1,14.1,4c0.2,0.1,0.1,0.5-0.1,0.4c-3.2-1.2-6.6-1.9-10.1-2.2c-2.8-0.2-5.4,0.1-8.1,0.5c-0.1,0.1-0.3,0.1-0.4,0.2
			c-0.1,0-0.2,0-0.3,0c-0.4,0.1-0.8,0.1-1.2,0.2c-3.1,0.6-6.2,1.5-9.2,2.6c-1.9,0.7-3.8,1.5-5.6,2.3c-0.4,0.3-0.8,0.7-1.1,1
			c-4.5,3.8-8.9,7.6-13.2,11.6c1.2-0.3,2.4-0.5,3.6-0.4c2,0,4.2,0.7,6.1,1.3c1.9,0.7,3.8,1.4,5.6,2.4c0.1,0,0,0.1-0.1,0.1
			c-1.9-0.5-3.9-0.9-5.9-0.9c-2,0-3.8,0.3-5.7,0.6c-3,0.5-6,1.2-8.9,2c-2.7,2.8-4.9,3.4-7.5,6.2c-0.3,0.4-2.8,2.7-3.1,3.1
			c-1,1.3-2.1,3.7-3.1,5c-1.7,2.2-1.6,3.6-3.3,5.9c-1.1,1.5-2.1,3.2-2,5.1c0.3,4.1,5.3,4.8,8.1,2.7c2-1.5,3-3.8,4-6
			c1.1-2.7,2.3-5.3,3.6-7.9c1.2-2.4,2.6-5,5-6.4c0.7-0.4,1.5-0.8,2.4-1c3.8,0.5,7.6,0.9,11.4,1.2c2.9,0.2,6.3-0.5,8-3
			c0.9-1.3,1-2.8,1-4.3c0.1-1.6,0.2-3.3,1.9-3.9c3.2-1.1,6.2,1.6,9,2.6c2.4,0.8,5.3,0.5,7-1.7c0.7-0.9,1-2.1,0.6-3.2
			c-0.3-1.1-1.8-2.5-1.4-3.7c0.6-1.9,3.2-1.2,4.5-0.8c1.6,0.5,3.2,1.2,4.9,1.7c5.6,1.7,12.6,2.2,17-2.5c3.8-4,3.2-11-2.2-13.3
			c-2.4-1-6.5-0.9-7.8-3.5c-1.5-3.1,2-5.8,4.5-6.6c6.4-2.1,13.5-1,20-0.6c6.2,0.4,12.9,0.3,18.6-2.6c4.8-2.5,8.8-7.1,9.1-12.7
			c0.2-1.2,0.2-2.5-0.3-3.7c-1-2.9-4-4.5-6.9-5.2c-1.7-0.4-3.4-0.5-5.2-0.5c-2.1,0.1-4.9,0.4-6.5-1.3c-1.9-2,0.2-4.3,2.1-5.1
			c2.2-1.1,4.8-1.7,7.1-2.5c4.9-1.6,9.9-3.1,14.7-4.9c4.2-1.5,8.4-3.6,11.4-7c2.5-3,4.2-7.1,3.2-11c-0.9-3.4-3.5-6.5-7-7.2
			c-4.1-0.9-7.6,2.6-11.7,1.8c-2.3-0.5-3.2-2.5-1.9-4.5c1.2-1.8,3.5-2.5,5.5-3c4.4-1.3,8.7-3.1,12.6-5.5c3.8-2.3,8-5.2,10.3-9.1
			c1.9-3.2,2.2-7.7-0.8-10.5c-2.7-2.5-6.2-1.2-9.2-0.3c-1.5,0.5-3.2,1-4.7,0.3c-1.9-0.9-2.4-3.3-2.2-5.2c0.6-5,6.6-7.5,10-10.5
			c3-2.7,5.4-6.4,3.8-10.5c-0.6-1.5-1.7-2.9-3.2-3.6c-1.8-0.8-3.4-0.2-5.1,0.2c-2.2,0.4-3.6-1.1-3.9-3.1c-0.3-2.4,1.2-4.4,2.6-6.1
			c2.1-2.5,5.1-5.5,5.1-9c0-0.1,0-0.1,0.1-0.1c0.3-1.4-0.3-2.8-1.3-3.8c-0.3-0.3-0.7-0.6-1.1-0.8c-1.4-1.1-3.2-1.5-4.8-0.5
			c-0.1,0.1-0.2,0.2-0.3,0.3c-1,0.4-2,1.1-2.9,2c-1.5,1.6-2.5,3.6-3.6,5.4c-1.1,1.9-2.5,4.1-4.8,4.7c-2,0.5-4.1-0.2-4.4-2.4
			c-0.3-1.8-0.2-3.6-1.6-5.1c-2.4-2.5-6.7-2.2-9.2-0.2c-3.9,3.1-4.5,8.3-6,12.7c-0.8,2.2-1.9,4.6-4.1,5.8c-1.7,0.9-4.1,1.3-5.6-0.1
			c-2.5-2.2-1.1-6.6-1.9-9.4c-1-3.5-4.5-5.1-8-4.4c-4.5,1-6.8,5.4-8.3,9.4c-1.6,4.3-2.6,8.9-2.9,13.5c-0.2,2.3-0.1,4.5,0,6.8
			c0.1,2.1,0.4,4.6-1,6.4c-1.4,1.8-3.5,1.8-4.8-0.1c-1.2-1.9-1.1-4.1-1.1-6.2c0-1.9-0.2-3.8-1.2-5.4c-0.9-1.6-2.3-2.7-4-3.4
			c-3.4-1.6-7.4-1-10.4,1.2c-8,5.7-7,16.8-6.8,25.4c0.1,2.7,0.1,5.3,0.2,8c0.1,2.4,0.3,4.9,0.1,7.3c-0.2,2-1.5,5-4,4
			c-2.2-0.9-2.9-3.5-3.5-5.6c-1-3.1-2.6-6.3-5.3-8.2c-2.4-1.7-5.2-1.8-7.7-0.5C336.8,263.6,333.7,270.6,333.9,276.9L333.9,276.9z"/>
		<path class="st0" d="M403.4,376.4c-18.9,65-62.2,98.7-112.9,114.7c-1.7,0.9-11.1,4.2-13.2,5.2l0.1-0.4
			c-19.1,6.3-39.5,9.7-60.7,9.7c-106.9,0-193.6-86.7-193.6-193.6s86.7-193.6,193.6-193.6c74.8,0,139.1,38.9,171.4,101
			c1.8-1.1,3.4-12.6,12.3-15.4C365.8,136.3,298,102.7,216.8,102.7C101.1,102.7,7.4,196.4,7.4,312s93.7,209.3,209.3,209.3
			c108.1,0,196.6-64.4,207.7-169.6l-4,0.1l0,0c-4.9,0-10.5-0.2-12.2-0.7C407.8,351,407.6,365.7,403.4,376.4L403.4,376.4z"/>
	</g>
</g>
</svg>
